<svg width="269" height="42" viewBox="0 0 269 42" fill="none" xmlns="http://www.w3.org/2000/svg">
<path d="M24.9532 33.1288C27.6843 33.1288 29.8982 30.9149 29.8982 28.1839C29.8982 25.4529 27.6843 23.239 24.9532 23.239C22.2222 23.239 20.0083 25.4529 20.0083 28.1839C20.0083 30.9149 22.2222 33.1288 24.9532 33.1288Z" fill="#FF0000"/>
<path fill-rule="evenodd" clip-rule="evenodd" d="M3.30344 39.1914C1.48636 39.1914 0 37.7051 0 35.888V3.30308C0 1.48617 1.48612 5.15249e-05 3.30303 5.15249e-05C4.61144 5.15249e-05 5.79597 0.779619 6.32539 1.97375C8.22476 5.04878 10.8771 7.62352 14.0301 9.4447C17.2322 11.2938 20.9629 12.3533 24.9531 12.3533C28.9431 12.3533 32.6735 11.2942 35.8762 9.4447C39.1351 7.56248 41.859 4.87534 43.7697 1.66215C44.3792 0.636291 45.4314 -3.05176e-05 46.6338 -3.05176e-05C48.4505 -3.05176e-05 49.9374 1.48592 49.9374 3.303V35.8879C49.9374 37.7048 48.4508 39.1913 46.6339 39.1913C44.8168 39.1913 43.3307 37.705 43.3307 35.8879V11.981C41.9991 13.13 40.5592 14.1554 39.0289 15.0389C34.8781 17.437 30.0693 18.8094 24.9531 18.8094C19.8369 18.8094 15.0286 17.4365 10.8772 15.0389C9.35867 14.1623 7.92957 13.1456 6.60672 12.0079V35.888C6.60672 37.7049 5.12043 39.1914 3.30344 39.1914Z" fill="#EBECEC"/>
<path fill-rule="evenodd" clip-rule="evenodd" d="M141.561 0C149.381 0 155.719 6.33877 155.719 14.1578C155.719 21.9773 149.381 28.3159 141.561 28.3159L118.148 28.3163V35.8886C118.148 37.7055 116.662 39.1914 114.845 39.1914C113.028 39.1914 111.541 37.7059 111.541 35.8886V3.30369C111.541 1.48677 113.028 8.20425e-05 114.845 8.20425e-05H141.561L141.561 0ZM141.561 21.8596C145.815 21.8596 149.263 18.4113 149.263 14.1578C149.263 9.90433 145.815 6.45633 141.561 6.45633H118.148V21.8599L141.561 21.8595V21.8596Z" fill="#EBECEC"/>
<path fill-rule="evenodd" clip-rule="evenodd" d="M69.4928 32.7348H98.6683C100.444 32.7348 101.896 34.1873 101.896 35.9632C101.896 37.7385 100.444 39.1914 98.6683 39.1914H66.1898C64.3727 39.1914 62.886 37.7059 62.886 35.8886V3.30366C62.886 1.48675 64.3725 6.10352e-05 66.1893 6.10352e-05H97.8307C99.5604 6.10352e-05 100.975 1.45271 100.975 3.22786C100.975 4.96839 99.5954 6.45639 97.8307 6.45639H69.4929V15.9553H89.4295C91.1591 15.9553 92.5744 17.4076 92.5744 19.1827C92.5744 20.9236 91.1941 22.4116 89.4295 22.4116H69.4929V32.735L69.4928 32.7348Z" fill="#EBECEC"/>
<path d="M168.667 10.4134V0H171.929L174.357 7.15213L176.726 0H179.915V10.4134H177.765V3.01293L175.205 10.4134H173.435L170.846 3.08595V10.4134H168.667ZM188.53 10.4134H186.424C186.356 10.2189 186.306 9.97497 186.278 9.68175C185.644 10.3165 184.83 10.6327 183.835 10.6327C182.996 10.6327 182.338 10.4304 181.861 10.0257C181.383 9.62112 181.144 9.06323 181.144 8.35151C181.144 8.02925 181.185 7.74686 181.268 7.50295C181.351 7.25977 181.488 7.05434 181.677 6.88902C181.868 6.72281 182.048 6.5867 182.219 6.47963C182.389 6.37199 182.626 6.28421 182.929 6.21652C183.231 6.14736 183.474 6.09649 183.66 6.06195C183.845 6.02815 184.103 5.99115 184.434 5.95267C185.166 5.85504 185.656 5.75257 185.905 5.64575C186.153 5.53795 186.278 5.33809 186.278 5.04643C186.278 4.37319 185.824 4.03698 184.917 4.03698C184.44 4.03698 184.089 4.12239 183.864 4.29238C183.64 4.46327 183.494 4.76339 183.426 5.19181H181.481C181.597 3.49542 182.762 2.64743 184.976 2.64743C187.169 2.64743 188.267 3.46605 188.267 5.10411V8.36612C188.267 9.32175 188.355 10.0043 188.53 10.4134ZM186.262 6.74274C186.019 6.88902 185.532 7.02046 184.8 7.13753C184.186 7.23516 183.786 7.35667 183.601 7.50295C183.386 7.68771 183.279 7.94155 183.279 8.26389C183.279 8.57549 183.379 8.82252 183.579 9.00244C183.778 9.18252 184.059 9.2726 184.42 9.2726C184.976 9.2726 185.422 9.12411 185.758 8.8272C186.095 8.5293 186.262 8.11695 186.262 7.59073V6.74291V6.74274ZM197.029 2.86665L194.191 5.66027L197.366 10.4134H194.85L192.773 7.06427L191.925 7.85368V10.4134H189.891V0H191.925V5.57265L194.587 2.86665H197.029H197.029ZM200.028 0V1.75497H197.951V0H200.028ZM200.028 2.86665V10.4134H197.951V2.86665H200.028ZM208.571 10.4134H206.465V6.01109C206.465 5.47486 206.377 5.06785 206.202 4.79013C206.026 4.51168 205.685 4.37319 205.178 4.37319C204.085 4.37319 203.539 5.03651 203.539 6.36207V10.4135H201.477V2.86673H203.451V3.91999C204.076 3.08143 204.909 2.66203 205.953 2.66203C206.762 2.66203 207.4 2.89594 207.869 3.36374C208.337 3.83229 208.571 4.49929 208.571 5.36722V10.4134H208.571ZM217.172 2.86665V9.62399C217.172 10.8619 216.865 11.7714 216.251 12.3514C215.636 12.9315 214.705 13.2216 213.457 13.2216C211.303 13.2216 210.123 12.4369 209.918 10.8666H211.98C212.058 11.2081 212.219 11.4544 212.462 11.6052C212.706 11.7568 213.052 11.8322 213.501 11.8322C214.154 11.8322 214.593 11.6737 214.818 11.3566C215.042 11.0397 215.158 10.5451 215.169 9.87258L215.183 9.02402C214.617 9.80416 213.847 10.1941 212.872 10.1941C211.887 10.1941 211.104 9.85724 210.525 9.18465C209.945 8.51158 209.655 7.61067 209.655 6.47963C209.655 5.32874 209.957 4.40478 210.561 3.70766C211.166 3.01055 211.965 2.66203 212.96 2.66203C213.486 2.66203 213.923 2.75671 214.269 2.94754C214.615 3.13763 214.93 3.44677 215.213 3.87618V2.86673H217.172L217.172 2.86665ZM214.73 4.84092C214.417 4.46073 213.988 4.2708 213.442 4.2708C212.896 4.2708 212.47 4.46311 212.163 4.84846C211.855 5.23324 211.702 5.77169 211.702 6.46421C211.702 7.12826 211.861 7.6567 212.178 8.05148C212.494 8.44611 212.921 8.64301 213.457 8.64301C213.994 8.64301 214.417 8.44389 214.73 8.04443C215.042 7.64357 215.197 7.10266 215.197 6.4204C215.197 5.7479 215.042 5.22159 214.73 4.84092ZM176.477 14.3888V16.2607H170.934V18.5288H176.024V20.3276H170.934V22.8873H176.58V24.803H168.668V14.3889H176.477V14.3888ZM182.417 17.2554H184.479L181.92 24.8029H179.594L177.005 17.2554H179.199L180.808 22.4041L182.417 17.2554ZM192.216 22.4625C191.983 23.2718 191.552 23.9004 190.923 24.349C190.294 24.7983 189.545 25.0222 188.677 25.0222C187.517 25.0222 186.584 24.6605 185.877 23.9397C185.17 23.218 184.816 22.2624 184.816 21.0731C184.816 19.9028 185.172 18.9379 185.884 18.177C186.595 17.417 187.502 17.0361 188.604 17.0361C189.744 17.0361 190.652 17.4239 191.325 18.1994C191.997 18.9742 192.334 20.0252 192.334 21.3508V21.5553H186.922C186.932 22.2087 187.09 22.7064 187.398 23.0472C187.705 23.3889 188.136 23.5596 188.692 23.5596C189.423 23.5596 189.935 23.1941 190.228 22.4625H192.216H192.216ZM190.228 20.2399C190.178 19.7419 190.018 19.3349 189.744 19.018C189.472 18.7018 189.091 18.5433 188.604 18.5433C188.146 18.5433 187.766 18.6933 187.463 18.9958C187.161 19.2981 186.981 19.7127 186.922 20.2399H190.228H190.228ZM198.214 17.1237V19.0396C197.922 18.9819 197.654 18.9517 197.41 18.9517C196.728 18.9517 196.225 19.1688 195.904 19.6027C195.582 20.0367 195.421 20.6198 195.421 21.3508V24.8029H193.344V17.2554H195.319V18.6448C195.816 17.6016 196.63 17.0799 197.761 17.0799C197.859 17.0799 198.01 17.0953 198.214 17.1237H198.214ZM205.66 17.2554L202.881 24.7737C202.745 25.1537 202.645 25.4192 202.581 25.5699C202.518 25.7215 202.421 25.9339 202.289 26.2069C202.158 26.4793 202.035 26.6701 201.923 26.7772C201.811 26.8848 201.66 27.0063 201.47 27.1426C201.28 27.2796 201.066 27.3719 200.826 27.4211C200.588 27.4695 200.312 27.4941 200 27.4941C199.746 27.4941 199.284 27.4887 198.611 27.4787V25.7677H199.619C199.961 25.7677 200.222 25.6799 200.402 25.5046C200.583 25.3291 200.673 25.0806 200.673 24.7591C200.673 24.6805 200.653 24.5836 200.614 24.466L197.879 17.2555H200.117L201.843 22.3896L203.51 17.2555H205.66V17.2554ZM210.342 17.2554V18.6601H208.806V22.214C208.806 22.4379 208.811 22.6017 208.821 22.7033C208.83 22.8065 208.865 22.9111 208.922 23.0187C208.981 23.1258 209.072 23.1964 209.193 23.2312C209.316 23.2641 209.488 23.2819 209.713 23.2819C209.967 23.2819 210.176 23.2719 210.342 23.2527V24.8315C209.834 24.8707 209.415 24.8906 209.084 24.8906C208.177 24.8906 207.561 24.7321 207.234 24.4152C206.907 24.099 206.744 23.4858 206.744 22.5803V18.6602H205.486V17.2555H206.744V14.9742H208.806V17.2555H210.342V17.2554ZM213.194 14.3888V18.2649C213.79 17.4655 214.583 17.0653 215.578 17.0653C217.344 17.0653 218.226 17.9963 218.226 19.859V24.8029H216.149V20.3567C216.149 19.8397 216.056 19.4449 215.872 19.1718C215.685 18.8986 215.334 18.7625 214.818 18.7625C214.194 18.7625 213.767 18.9617 213.538 19.3619C213.31 19.762 213.194 20.2929 213.194 20.9559V24.8028H211.147V14.3887H213.194L213.194 14.3888ZM221.738 14.3888V16.1445H219.661V14.3888H221.738ZM221.738 17.2554V24.8029H219.661V17.2554H221.738ZM230.28 24.8029H228.174V20.4006C228.174 19.8636 228.086 19.4574 227.911 19.1789C227.735 18.9012 227.394 18.7627 226.887 18.7627C225.795 18.7627 225.249 19.425 225.249 20.7514V24.803H223.187V17.2555H225.161V18.3088C225.785 17.4702 226.619 17.0515 227.662 17.0515C228.471 17.0515 229.11 17.2854 229.579 17.7533C230.045 18.2211 230.28 18.8888 230.28 19.7567V24.8029H230.28ZM238.881 17.2554V24.0135C238.881 25.2514 238.574 26.1609 237.96 26.7402C237.345 27.321 236.414 27.6104 235.167 27.6104C233.012 27.6104 231.831 26.8257 231.628 25.2561H233.689C233.767 25.5977 233.929 25.844 234.172 25.9947C234.416 26.1463 234.762 26.2208 235.211 26.2208C235.864 26.2208 236.302 26.063 236.527 25.7453C236.751 25.4291 236.868 24.9345 236.878 24.2613L236.892 23.4134C236.327 24.1936 235.557 24.5835 234.582 24.5835C233.596 24.5835 232.814 24.2467 232.235 23.5733C231.654 22.901 231.364 21.9992 231.364 20.8683C231.364 19.7182 231.667 18.794 232.271 18.0971C232.875 17.4 233.675 17.0515 234.67 17.0515C235.196 17.0515 235.632 17.1461 235.978 17.3362C236.324 17.5271 236.639 17.8362 236.921 18.2649V17.2554H238.881ZM236.438 19.2304C236.127 18.8502 235.697 18.6601 235.152 18.6601C234.606 18.6601 234.179 18.8526 233.872 19.238C233.565 19.6228 233.412 20.1612 233.412 20.8537C233.412 21.5168 233.569 22.0455 233.887 22.4401C234.203 22.8349 234.63 23.0325 235.167 23.0325C235.703 23.0325 236.127 22.8324 236.438 22.4332C236.751 22.0331 236.907 21.4922 236.907 20.8099C236.907 20.1367 236.751 19.6104 236.438 19.2304ZM168.682 28.7783H173.172C174.343 28.7783 175.271 29.0582 175.958 29.6191C176.645 30.1801 176.989 31.0155 176.989 32.1273C176.989 33.2198 176.648 34.046 175.966 34.607C175.283 35.1678 174.391 35.447 173.288 35.447H170.95V39.1916H168.682V28.7782L168.682 28.7783ZM170.95 30.6502V33.6492H172.982C174.172 33.6492 174.766 33.1522 174.766 32.1574C174.766 31.1533 174.176 30.6502 172.997 30.6502H170.95ZM181.715 31.4257C182.876 31.4257 183.809 31.7911 184.516 32.5228C185.223 33.2537 185.577 34.2193 185.577 35.4186C185.577 36.6274 185.223 37.5983 184.516 38.3284C183.809 39.06 182.866 39.4263 181.685 39.4263C180.506 39.4263 179.56 39.06 178.848 38.3284C178.137 37.5983 177.781 36.6274 177.781 35.4186C177.781 34.2193 178.142 33.2537 178.863 32.5228C179.584 31.7911 180.535 31.4257 181.715 31.4257ZM181.657 33.0052C181.101 33.0052 180.662 33.2199 180.34 33.6492C180.018 34.0777 179.858 34.6677 179.858 35.4186C179.858 36.1888 180.018 36.7881 180.34 37.2174C180.662 37.6467 181.111 37.8615 181.685 37.8615C182.262 37.8615 182.707 37.6444 183.024 37.2105C183.341 36.7765 183.5 36.1741 183.5 35.4032C183.5 34.653 183.336 34.0661 183.01 33.6413C182.683 33.2174 182.232 33.0051 181.657 33.0051V33.0052ZM193.11 33.8384H191.179C191.121 33.4591 190.977 33.19 190.748 33.0344C190.519 32.8782 190.185 32.7998 189.745 32.7998C189.375 32.7998 189.088 32.866 188.883 32.9984C188.678 33.1298 188.576 33.3122 188.576 33.5468C188.576 33.8192 188.693 34.0093 188.927 34.117C189.161 34.224 189.581 34.3408 190.185 34.4679C190.292 34.4871 190.37 34.5025 190.419 34.5117C190.77 34.5794 191.05 34.641 191.26 34.6948C191.47 34.7479 191.725 34.8355 192.027 34.9579C192.33 35.0794 192.564 35.2164 192.73 35.3673C192.895 35.5187 193.041 35.721 193.168 35.9741C193.295 36.2273 193.359 36.5205 193.359 36.8521C193.359 37.6422 193.051 38.2653 192.437 38.724C191.823 39.1826 190.98 39.4111 189.907 39.4111C188.883 39.4111 188.04 39.1918 187.377 38.7532C186.713 38.3146 186.377 37.6422 186.368 36.7351H188.342C188.411 37.5729 188.946 37.993 189.951 37.993C190.37 37.993 190.703 37.9076 190.952 37.7369C191.201 37.566 191.326 37.3399 191.326 37.0568C191.326 36.7744 191.213 36.5736 190.989 36.4566C190.765 36.3405 190.35 36.2134 189.745 36.0765C189.697 36.0665 189.658 36.0573 189.629 36.0473C189.561 36.0281 189.41 35.9942 189.175 35.9449C188.941 35.8964 188.778 35.8594 188.685 35.8348C188.593 35.811 188.442 35.7695 188.232 35.711C188.023 35.6525 187.869 35.5963 187.771 35.5425C187.674 35.4887 187.545 35.421 187.384 35.3378C187.223 35.2555 187.103 35.1647 187.026 35.0678C186.947 34.9693 186.862 34.8556 186.769 34.7239C186.677 34.5925 186.614 34.443 186.579 34.2777C186.546 34.1122 186.529 33.9315 186.529 33.7368C186.529 32.9952 186.816 32.4251 187.391 32.0257C187.967 31.625 188.781 31.4256 189.834 31.4256C190.779 31.4256 191.555 31.6203 192.159 32.0103C192.764 32.4005 193.081 33.0098 193.11 33.8383L193.11 33.8384ZM200.761 33.8384H198.829C198.772 33.4591 198.628 33.19 198.398 33.0344C198.169 32.8782 197.835 32.7998 197.396 32.7998C197.026 32.7998 196.738 32.866 196.533 32.9984C196.329 33.1298 196.226 33.3122 196.226 33.5468C196.226 33.8192 196.344 34.0093 196.577 34.117C196.811 34.224 197.231 34.3408 197.835 34.4679C197.942 34.4871 198.021 34.5025 198.069 34.5117C198.42 34.5794 198.7 34.641 198.91 34.6948C199.12 34.7479 199.376 34.8355 199.678 34.9579C199.98 35.0794 200.214 35.2164 200.38 35.3673C200.546 35.5187 200.692 35.721 200.819 35.9741C200.946 36.2273 201.009 36.5205 201.009 36.8521C201.009 37.6422 200.702 38.2653 200.087 38.724C199.473 39.1826 198.63 39.4111 197.558 39.4111C196.533 39.4111 195.69 39.1918 195.027 38.7532C194.364 38.3146 194.028 37.6422 194.019 36.7351H195.993C196.061 37.5729 196.597 37.993 197.601 37.993C198.021 37.993 198.354 37.9076 198.603 37.7369C198.852 37.566 198.976 37.3399 198.976 37.0568C198.976 36.7744 198.864 36.5736 198.64 36.4566C198.416 36.3405 198.001 36.2134 197.396 36.0765C197.348 36.0665 197.308 36.0573 197.28 36.0473C197.211 36.0281 197.061 35.9942 196.826 35.9449C196.592 35.8964 196.429 35.8594 196.336 35.8348C196.244 35.811 196.092 35.7695 195.882 35.711C195.673 35.6525 195.52 35.5963 195.422 35.5425C195.325 35.4887 195.196 35.421 195.034 35.3378C194.873 35.2555 194.754 35.1647 194.676 35.0678C194.598 34.9693 194.512 34.8556 194.42 34.7239C194.328 34.5925 194.264 34.443 194.23 34.2777C194.196 34.1122 194.179 33.9315 194.179 33.7368C194.179 32.9952 194.466 32.4251 195.042 32.0257C195.616 31.625 196.431 31.4256 197.484 31.4256C198.43 31.4256 199.206 31.6203 199.81 32.0103C200.414 32.4005 200.731 33.0098 200.76 33.8383L200.761 33.8384ZM204.17 28.7784V30.5332H202.092V28.7784H204.17ZM204.17 31.645V39.1918H202.092V31.645H204.17ZM207.652 28.7784V32.5666C208.236 31.8349 209.031 31.4695 210.036 31.4695C211.04 31.4695 211.829 31.8349 212.405 32.5666C212.98 33.2975 213.268 34.2239 213.268 35.3456C213.268 36.5543 212.958 37.5322 212.339 38.2777C211.719 39.0233 210.913 39.3962 209.918 39.3962C208.875 39.3962 208.086 39.0116 207.549 38.2407L207.564 39.1917H205.59V28.7783H207.652V28.7784ZM209.392 33.0644C208.836 33.0644 208.395 33.2706 208.068 33.6853C207.742 34.0993 207.578 34.6624 207.578 35.3748C207.578 36.1057 207.739 36.6812 208.061 37.1006C208.383 37.5197 208.826 37.7299 209.392 37.7299C209.928 37.7299 210.36 37.5151 210.687 37.086C211.013 36.6567 211.176 36.0819 211.176 35.3595C211.176 34.6677 211.013 34.1123 210.687 33.693C210.36 33.2729 209.928 33.0643 209.392 33.0643L209.392 33.0644ZM216.473 28.7784V39.1918H214.395V28.7784H216.473ZM224.999 36.8521C224.766 37.6607 224.335 38.29 223.706 38.7386C223.077 39.1872 222.328 39.4111 221.46 39.4111C220.301 39.4111 219.367 39.0502 218.66 38.3284C217.954 37.6077 217.599 36.6521 217.599 35.4625C217.599 34.2924 217.956 33.3275 218.667 32.5667C219.378 31.8067 220.286 31.4258 221.387 31.4258C222.528 31.4258 223.435 31.8135 224.108 32.5891C224.78 33.3631 225.117 34.4148 225.117 35.7405V35.945H219.705C219.715 36.5983 219.874 37.0953 220.181 37.4369C220.488 37.7784 220.919 37.9492 221.476 37.9492C222.207 37.9492 222.718 37.5831 223.011 36.8522H224.999V36.8521ZM223.011 34.6286C222.962 34.1316 222.801 33.7245 222.528 33.4069C222.255 33.0907 221.875 32.9322 221.387 32.9322C220.929 32.9322 220.549 33.0829 220.246 33.3852C219.944 33.6877 219.764 34.1015 219.706 34.6286H223.011H223.011ZM237.39 31.645V38.4024C237.39 39.641 237.083 40.5505 236.469 41.1298C235.855 41.7098 234.923 42 233.676 42C231.521 42 230.341 41.2153 230.137 39.6457H232.199C232.276 39.9873 232.437 40.2326 232.681 40.3843C232.925 40.535 233.271 40.6104 233.72 40.6104C234.373 40.6104 234.811 40.4519 235.036 40.1349C235.26 39.8187 235.377 39.3232 235.387 38.6509L235.401 37.8021C234.835 38.5823 234.066 38.9725 233.09 38.9725C232.106 38.9725 231.323 38.6363 230.743 37.963C230.163 37.2905 229.873 36.3889 229.873 35.258C229.873 34.1069 230.175 33.1829 230.779 32.4858C231.384 31.7888 232.184 31.4403 233.178 31.4403C233.704 31.4403 234.141 31.535 234.487 31.7258C234.833 31.9158 235.148 32.2251 235.431 32.6545V31.645H237.39H237.39ZM234.948 33.6191C234.636 33.2398 234.207 33.049 233.66 33.049C233.115 33.049 232.688 33.2421 232.381 33.6268C232.074 34.0114 231.92 34.5508 231.92 35.2433C231.92 35.9064 232.078 36.4351 232.395 36.8297C232.712 37.2245 233.139 37.4221 233.676 37.4221C234.212 37.4221 234.636 37.222 234.948 36.8228C235.26 36.4227 235.416 35.881 235.416 35.1993C235.416 34.5262 235.26 34 234.948 33.619V33.6191ZM243.783 31.5133V33.4292C243.491 33.3715 243.222 33.3413 242.979 33.3413C242.296 33.3413 241.794 33.5584 241.472 33.9922C241.151 34.4263 240.989 35.0087 240.989 35.7404V39.1918H238.913V31.645H240.888V33.0344C241.385 31.9911 242.199 31.4695 243.33 31.4695C243.427 31.4695 243.578 31.4841 243.783 31.5133H243.783ZM247.821 31.4257C248.981 31.4257 249.915 31.7911 250.622 32.5228C251.328 33.2537 251.683 34.2193 251.683 35.4186C251.683 36.6274 251.328 37.5983 250.622 38.3284C249.915 39.06 248.971 39.4263 247.791 39.4263C246.612 39.4263 245.665 39.06 244.954 38.3284C244.243 37.5983 243.886 36.6274 243.886 35.4186C243.886 34.2193 244.248 33.2537 244.969 32.5228C245.69 31.7911 246.641 31.4257 247.821 31.4257H247.821ZM247.762 33.0052C247.207 33.0052 246.768 33.2199 246.446 33.6492C246.124 34.0777 245.963 34.6677 245.963 35.4186C245.963 36.1888 246.124 36.7881 246.446 37.2174C246.768 37.6467 247.217 37.8615 247.791 37.8615C248.367 37.8615 248.813 37.6444 249.13 37.2105C249.447 36.7765 249.606 36.1741 249.606 35.4032C249.606 34.653 249.442 34.0661 249.115 33.6413C248.789 33.2174 248.338 33.0051 247.762 33.0051V33.0052ZM259.918 31.645V39.1918H257.943V38.1246C257.359 38.9817 256.539 39.4111 255.486 39.4111C254.657 39.4111 254.011 39.1847 253.548 38.7317C253.085 38.2777 252.853 37.6076 252.853 36.7204V31.645H254.945V35.9595C254.945 36.2427 254.957 36.4697 254.981 36.6397C255.006 36.8106 255.057 36.9836 255.135 37.1591C255.214 37.3346 255.343 37.4638 255.523 37.5461C255.703 37.6291 255.934 37.6707 256.218 37.6707C257.309 37.6707 257.855 36.959 257.855 35.5357V31.645H259.918ZM263.269 31.645V32.5805C263.814 31.8203 264.595 31.4403 265.609 31.4403C266.622 31.4403 267.437 31.8066 268.051 32.5366C268.665 33.2683 268.973 34.244 268.973 35.4624C268.973 36.642 268.673 37.5898 268.073 38.3069C267.473 39.0233 266.681 39.3826 265.697 39.3826C264.682 39.3826 263.907 39.0063 263.37 38.2562V41.8684H261.308V31.6451H263.269L263.269 31.645ZM265.097 33.1084C264.531 33.1084 264.09 33.3122 263.773 33.7223C263.456 34.1316 263.297 34.7016 263.297 35.4333C263.297 36.1642 263.458 36.7351 263.78 37.1445C264.102 37.5546 264.546 37.7584 265.111 37.7584C265.667 37.7584 266.103 37.5546 266.42 37.1445C266.737 36.7351 266.896 36.1742 266.896 35.4625C266.896 34.731 266.734 34.1562 266.413 33.7369C266.092 33.3168 265.653 33.1084 265.097 33.1084H265.097Z" fill="#EBECEC"/>
</svg>
