<svg width="269" height="42" viewBox="0 0 269 42" fill="none" xmlns="http://www.w3.org/2000/svg">
<path d="M24.9537 33.1288C27.6848 33.1288 29.8987 30.9149 29.8987 28.1839C29.8987 25.4529 27.6848 23.239 24.9537 23.239C22.2227 23.239 20.0088 25.4529 20.0088 28.1839C20.0088 30.9149 22.2227 33.1288 24.9537 33.1288Z" fill="#FF0000"/>
<path fill-rule="evenodd" clip-rule="evenodd" d="M3.30344 39.1914C1.48636 39.1914 0 37.7051 0 35.888V3.30308C0 1.48617 1.48612 5.15249e-05 3.30303 5.15249e-05C4.61144 5.15249e-05 5.79597 0.779619 6.32539 1.97375C8.22476 5.04878 10.8771 7.62352 14.0301 9.4447C17.2322 11.2938 20.9629 12.3533 24.9531 12.3533C28.9431 12.3533 32.6735 11.2942 35.8762 9.4447C39.1351 7.56248 41.859 4.87534 43.7697 1.66215C44.3792 0.636291 45.4314 -3.05176e-05 46.6338 -3.05176e-05C48.4505 -3.05176e-05 49.9374 1.48592 49.9374 3.303V35.8879C49.9374 37.7048 48.4508 39.1913 46.6339 39.1913C44.8168 39.1913 43.3307 37.705 43.3307 35.8879V11.981C41.9991 13.13 40.5592 14.1554 39.0289 15.0389C34.8781 17.437 30.0693 18.8094 24.9531 18.8094C19.8369 18.8094 15.0286 17.4365 10.8772 15.0389C9.35867 14.1623 7.92957 13.1456 6.60672 12.0079V35.888C6.60672 37.7049 5.12043 39.1914 3.30344 39.1914Z" fill="#06274D"/>
<path fill-rule="evenodd" clip-rule="evenodd" d="M141.561 0C149.38 0 155.719 6.33877 155.719 14.1578C155.719 21.9773 149.38 28.3159 141.561 28.3159L118.148 28.3163V35.8886C118.148 37.7055 116.662 39.1914 114.845 39.1914C113.028 39.1914 111.541 37.7059 111.541 35.8886V3.30369C111.541 1.48677 113.027 8.20425e-05 114.844 8.20425e-05H141.561L141.561 0ZM141.561 21.8596C145.814 21.8596 149.263 18.4113 149.263 14.1578C149.263 9.90433 145.815 6.45633 141.561 6.45633H118.148V21.8599L141.561 21.8595V21.8596Z" fill="#06274D"/>
<path fill-rule="evenodd" clip-rule="evenodd" d="M69.4925 32.7348H98.6681C100.443 32.7348 101.896 34.1873 101.896 35.9632C101.896 37.7385 100.444 39.1914 98.6681 39.1914H66.1895C64.3724 39.1914 62.8857 37.7059 62.8857 35.8886V3.30366C62.8857 1.48675 64.3723 6.10352e-05 66.189 6.10352e-05H97.8305C99.5601 6.10352e-05 100.975 1.45271 100.975 3.22786C100.975 4.96839 99.5951 6.45639 97.8305 6.45639H69.4926V15.9553H89.4293C91.1589 15.9553 92.5742 17.4076 92.5742 19.1827C92.5742 20.9236 91.1938 22.4116 89.4293 22.4116H69.4926V32.735L69.4925 32.7348Z" fill="#06274D"/>
<path d="M168.667 10.4134V0H171.928L174.356 7.15213L176.725 0H179.914V10.4134H177.764V3.01293L175.204 10.4134H173.435L170.846 3.08595V10.4134H168.667ZM188.53 10.4134H186.423C186.356 10.2189 186.306 9.97497 186.277 9.68175C185.643 10.3165 184.829 10.6327 183.835 10.6327C182.996 10.6327 182.338 10.4304 181.86 10.0257C181.382 9.62112 181.144 9.06323 181.144 8.35151C181.144 8.02925 181.185 7.74686 181.268 7.50295C181.351 7.25977 181.487 7.05434 181.677 6.88902C181.867 6.72281 182.048 6.5867 182.219 6.47963C182.389 6.37199 182.626 6.28421 182.928 6.21652C183.23 6.14736 183.474 6.09649 183.659 6.06195C183.844 6.02815 184.103 5.99115 184.434 5.95267C185.165 5.85504 185.655 5.75257 185.904 5.64575C186.153 5.53795 186.277 5.33809 186.277 5.04643C186.277 4.37319 185.823 4.03698 184.917 4.03698C184.439 4.03698 184.088 4.12239 183.864 4.29238C183.64 4.46327 183.494 4.76339 183.425 5.19181H181.48C181.596 3.49542 182.762 2.64743 184.975 2.64743C187.169 2.64743 188.267 3.46605 188.267 5.10411V8.36612C188.267 9.32175 188.354 10.0043 188.53 10.4134ZM186.262 6.74274C186.019 6.88902 185.532 7.02046 184.8 7.13753C184.186 7.23516 183.786 7.35667 183.6 7.50295C183.386 7.68771 183.279 7.94155 183.279 8.26389C183.279 8.57549 183.379 8.82252 183.579 9.00244C183.778 9.18252 184.059 9.2726 184.42 9.2726C184.975 9.2726 185.421 9.12411 185.758 8.8272C186.095 8.5293 186.262 8.11695 186.262 7.59073V6.74291V6.74274ZM197.028 2.86665L194.191 5.66027L197.365 10.4134H194.849L192.772 7.06427L191.924 7.85368V10.4134H189.891V0H191.924V5.57265L194.586 2.86665H197.028H197.028ZM200.028 0V1.75497H197.951V0H200.028ZM200.028 2.86665V10.4134H197.951V2.86665H200.028ZM208.57 10.4134H206.465V6.01109C206.465 5.47486 206.377 5.06785 206.201 4.79013C206.026 4.51168 205.684 4.37319 205.177 4.37319C204.085 4.37319 203.539 5.03651 203.539 6.36207V10.4135H201.477V2.86673H203.451V3.91999C204.076 3.08143 204.909 2.66203 205.952 2.66203C206.761 2.66203 207.4 2.89594 207.869 3.36374C208.336 3.83229 208.57 4.49929 208.57 5.36722V10.4134H208.57ZM217.172 2.86665V9.62399C217.172 10.8619 216.865 11.7714 216.25 12.3514C215.635 12.9315 214.705 13.2216 213.457 13.2216C211.302 13.2216 210.122 12.4369 209.918 10.8666H211.979C212.057 11.2081 212.219 11.4544 212.462 11.6052C212.706 11.7568 213.052 11.8322 213.5 11.8322C214.154 11.8322 214.592 11.6737 214.818 11.3566C215.041 11.0397 215.158 10.5451 215.169 9.87258L215.182 9.02402C214.617 9.80416 213.847 10.1941 212.872 10.1941C211.886 10.1941 211.104 9.85724 210.524 9.18465C209.944 8.51158 209.655 7.61067 209.655 6.47963C209.655 5.32874 209.957 4.40478 210.561 3.70766C211.165 3.01055 211.965 2.66203 212.96 2.66203C213.486 2.66203 213.922 2.75671 214.268 2.94754C214.615 3.13763 214.929 3.44677 215.212 3.87618V2.86673H217.172L217.172 2.86665ZM214.729 4.84092C214.417 4.46073 213.988 4.2708 213.442 4.2708C212.896 4.2708 212.47 4.46311 212.163 4.84846C211.855 5.23324 211.702 5.77169 211.702 6.46421C211.702 7.12826 211.86 7.6567 212.177 8.05148C212.493 8.44611 212.92 8.64301 213.457 8.64301C213.994 8.64301 214.417 8.44389 214.729 8.04443C215.042 7.64357 215.197 7.10266 215.197 6.4204C215.197 5.7479 215.042 5.22159 214.729 4.84092ZM176.477 14.3888V16.2607H170.934V18.5288H176.024V20.3276H170.934V22.8873H176.579V24.803H168.667V14.3889H176.477V14.3888ZM182.416 17.2554H184.478L181.919 24.8029H179.594L177.005 17.2554H179.198L180.808 22.4041L182.416 17.2554ZM192.216 22.4625C191.983 23.2718 191.551 23.9004 190.923 24.349C190.293 24.7983 189.545 25.0222 188.677 25.0222C187.517 25.0222 186.583 24.6605 185.876 23.9397C185.169 23.218 184.815 22.2624 184.815 21.0731C184.815 19.9028 185.172 18.9379 185.883 18.177C186.595 17.417 187.502 17.0361 188.604 17.0361C189.744 17.0361 190.651 17.4239 191.324 18.1994C191.997 18.9742 192.334 20.0252 192.334 21.3508V21.5553H186.922C186.932 22.2087 187.089 22.7064 187.397 23.0472C187.704 23.3889 188.136 23.5596 188.691 23.5596C189.423 23.5596 189.935 23.1941 190.228 22.4625H192.216H192.216ZM190.228 20.2399C190.178 19.7419 190.018 19.3349 189.744 19.018C189.472 18.7018 189.091 18.5433 188.604 18.5433C188.146 18.5433 187.765 18.6933 187.463 18.9958C187.16 19.2981 186.981 19.7127 186.922 20.2399H190.228H190.228ZM198.214 17.1237V19.0396C197.922 18.9819 197.653 18.9517 197.41 18.9517C196.727 18.9517 196.225 19.1688 195.903 19.6027C195.582 20.0367 195.42 20.6198 195.42 21.3508V24.8029H193.344V17.2554H195.319V18.6448C195.816 17.6016 196.63 17.0799 197.761 17.0799C197.858 17.0799 198.009 17.0953 198.214 17.1237H198.214ZM205.66 17.2554L202.88 24.7737C202.744 25.1537 202.645 25.4192 202.581 25.5699C202.518 25.7215 202.42 25.9339 202.288 26.2069C202.157 26.4793 202.035 26.6701 201.922 26.7772C201.811 26.8848 201.659 27.0063 201.469 27.1426C201.28 27.2796 201.065 27.3719 200.826 27.4211C200.588 27.4695 200.311 27.4941 200 27.4941C199.746 27.4941 199.283 27.4887 198.61 27.4787V25.7677H199.619C199.96 25.7677 200.221 25.6799 200.401 25.5046C200.582 25.3291 200.673 25.0806 200.673 24.7591C200.673 24.6805 200.653 24.5836 200.614 24.466L197.879 17.2555H200.116L201.842 22.3896L203.509 17.2555H205.66V17.2554ZM210.342 17.2554V18.6601H208.805V22.214C208.805 22.4379 208.81 22.6017 208.82 22.7033C208.83 22.8065 208.864 22.9111 208.922 23.0187C208.981 23.1258 209.071 23.1964 209.193 23.2312C209.315 23.2641 209.488 23.2819 209.712 23.2819C209.966 23.2819 210.175 23.2719 210.342 23.2527V24.8315C209.834 24.8707 209.414 24.8906 209.084 24.8906C208.177 24.8906 207.56 24.7321 207.233 24.4152C206.907 24.099 206.743 23.4858 206.743 22.5803V18.6602H205.485V17.2555H206.743V14.9742H208.805V17.2555H210.342V17.2554ZM213.194 14.3888V18.2649C213.789 17.4655 214.583 17.0653 215.578 17.0653C217.344 17.0653 218.225 17.9963 218.225 19.859V24.8029H216.149V20.3567C216.149 19.8397 216.056 19.4449 215.871 19.1718C215.685 18.8986 215.334 18.7625 214.818 18.7625C214.193 18.7625 213.767 18.9617 213.538 19.3619C213.309 19.762 213.194 20.2929 213.194 20.9559V24.8028H211.146V14.3887H213.194L213.194 14.3888ZM221.737 14.3888V16.1445H219.66V14.3888H221.737ZM221.737 17.2554V24.8029H219.66V17.2554H221.737ZM230.28 24.8029H228.173V20.4006C228.173 19.8636 228.086 19.4574 227.91 19.1789C227.735 18.9012 227.394 18.7627 226.887 18.7627C225.794 18.7627 225.248 19.425 225.248 20.7514V24.803H223.186V17.2555H225.16V18.3088C225.785 17.4702 226.618 17.0515 227.661 17.0515C228.471 17.0515 229.109 17.2854 229.578 17.7533C230.045 18.2211 230.28 18.8888 230.28 19.7567V24.8029H230.28ZM238.881 17.2554V24.0135C238.881 25.2514 238.574 26.1609 237.96 26.7402C237.345 27.321 236.414 27.6104 235.166 27.6104C233.012 27.6104 231.831 26.8257 231.627 25.2561H233.689C233.767 25.5977 233.928 25.844 234.171 25.9947C234.415 26.1463 234.761 26.2208 235.21 26.2208C235.863 26.2208 236.302 26.063 236.526 25.7453C236.75 25.4291 236.867 24.9345 236.877 24.2613L236.892 23.4134C236.326 24.1936 235.556 24.5835 234.581 24.5835C233.596 24.5835 232.813 24.2467 232.234 23.5733C231.653 22.901 231.364 21.9992 231.364 20.8683C231.364 19.7182 231.666 18.794 232.27 18.0971C232.874 17.4 233.674 17.0515 234.669 17.0515C235.195 17.0515 235.632 17.1461 235.978 17.3362C236.324 17.5271 236.639 17.8362 236.921 18.2649V17.2554H238.881ZM236.438 19.2304C236.126 18.8502 235.697 18.6601 235.151 18.6601C234.605 18.6601 234.178 18.8526 233.871 19.238C233.564 19.6228 233.411 20.1612 233.411 20.8537C233.411 21.5168 233.569 22.0455 233.887 22.4401C234.203 22.8349 234.63 23.0325 235.166 23.0325C235.702 23.0325 236.126 22.8324 236.438 22.4332C236.75 22.0331 236.906 21.4922 236.906 20.8099C236.906 20.1367 236.75 19.6104 236.438 19.2304ZM168.682 28.7783H173.172C174.342 28.7783 175.271 29.0582 175.958 29.6191C176.645 30.1801 176.989 31.0155 176.989 32.1273C176.989 33.2198 176.648 34.046 175.965 34.607C175.282 35.1678 174.391 35.447 173.288 35.447H170.949V39.1916H168.682V28.7782L168.682 28.7783ZM170.949 30.6502V33.6492H172.981C174.171 33.6492 174.766 33.1522 174.766 32.1574C174.766 31.1533 174.176 30.6502 172.996 30.6502H170.949ZM181.715 31.4257C182.875 31.4257 183.809 31.7911 184.515 32.5228C185.223 33.2537 185.576 34.2193 185.576 35.4186C185.576 36.6274 185.223 37.5983 184.515 38.3284C183.809 39.06 182.865 39.4263 181.685 39.4263C180.506 39.4263 179.559 39.06 178.848 38.3284C178.137 37.5983 177.78 36.6274 177.78 35.4186C177.78 34.2193 178.141 33.2537 178.862 32.5228C179.584 31.7911 180.535 31.4257 181.715 31.4257ZM181.657 33.0052C181.1 33.0052 180.662 33.2199 180.339 33.6492C180.018 34.0777 179.857 34.6677 179.857 35.4186C179.857 36.1888 180.018 36.7881 180.339 37.2174C180.662 37.6467 181.11 37.8615 181.685 37.8615C182.261 37.8615 182.707 37.6444 183.024 37.2105C183.341 36.7765 183.499 36.1741 183.499 35.4032C183.499 34.653 183.335 34.0661 183.009 33.6413C182.682 33.2174 182.231 33.0051 181.657 33.0051V33.0052ZM193.109 33.8384H191.178C191.121 33.4591 190.977 33.19 190.748 33.0344C190.518 32.8782 190.184 32.7998 189.745 32.7998C189.375 32.7998 189.087 32.866 188.883 32.9984C188.678 33.1298 188.576 33.3122 188.576 33.5468C188.576 33.8192 188.692 34.0093 188.926 34.117C189.16 34.224 189.58 34.3408 190.184 34.4679C190.291 34.4871 190.37 34.5025 190.418 34.5117C190.769 34.5794 191.049 34.641 191.259 34.6948C191.469 34.7479 191.725 34.8355 192.027 34.9579C192.329 35.0794 192.563 35.2164 192.729 35.3673C192.895 35.5187 193.041 35.721 193.168 35.9741C193.295 36.2273 193.359 36.5205 193.359 36.8521C193.359 37.6422 193.051 38.2653 192.436 38.724C191.822 39.1826 190.979 39.4111 189.907 39.4111C188.883 39.4111 188.039 39.1918 187.376 38.7532C186.713 38.3146 186.377 37.6422 186.367 36.7351H188.342C188.41 37.5729 188.946 37.993 189.95 37.993C190.37 37.993 190.703 37.9076 190.952 37.7369C191.2 37.566 191.325 37.3399 191.325 37.0568C191.325 36.7744 191.213 36.5736 190.989 36.4566C190.764 36.3405 190.35 36.2134 189.745 36.0765C189.696 36.0665 189.657 36.0573 189.629 36.0473C189.56 36.0281 189.409 35.9942 189.175 35.9449C188.941 35.8964 188.778 35.8594 188.685 35.8348C188.592 35.811 188.442 35.7695 188.232 35.711C188.022 35.6525 187.868 35.5963 187.771 35.5425C187.674 35.4887 187.544 35.421 187.383 35.3378C187.223 35.2555 187.103 35.1647 187.025 35.0678C186.947 34.9693 186.861 34.8556 186.769 34.7239C186.677 34.5925 186.614 34.443 186.579 34.2777C186.545 34.1122 186.528 33.9315 186.528 33.7368C186.528 32.9952 186.815 32.4251 187.391 32.0257C187.966 31.625 188.78 31.4256 189.833 31.4256C190.779 31.4256 191.554 31.6203 192.158 32.0103C192.763 32.4005 193.08 33.0098 193.109 33.8383L193.109 33.8384ZM200.76 33.8384H198.829C198.771 33.4591 198.627 33.19 198.397 33.0344C198.169 32.8782 197.834 32.7998 197.396 32.7998C197.026 32.7998 196.738 32.866 196.532 32.9984C196.329 33.1298 196.225 33.3122 196.225 33.5468C196.225 33.8192 196.343 34.0093 196.576 34.117C196.811 34.224 197.23 34.3408 197.834 34.4679C197.942 34.4871 198.02 34.5025 198.069 34.5117C198.42 34.5794 198.7 34.641 198.91 34.6948C199.12 34.7479 199.375 34.8355 199.678 34.9579C199.98 35.0794 200.214 35.2164 200.38 35.3673C200.545 35.5187 200.692 35.721 200.819 35.9741C200.946 36.2273 201.009 36.5205 201.009 36.8521C201.009 37.6422 200.702 38.2653 200.087 38.724C199.473 39.1826 198.63 39.4111 197.557 39.4111C196.532 39.4111 195.69 39.1918 195.027 38.7532C194.363 38.3146 194.027 37.6422 194.018 36.7351H195.992C196.061 37.5729 196.596 37.993 197.601 37.993C198.02 37.993 198.353 37.9076 198.603 37.7369C198.851 37.566 198.976 37.3399 198.976 37.0568C198.976 36.7744 198.864 36.5736 198.64 36.4566C198.415 36.3405 198 36.2134 197.396 36.0765C197.347 36.0665 197.308 36.0573 197.279 36.0473C197.211 36.0281 197.06 35.9942 196.826 35.9449C196.592 35.8964 196.429 35.8594 196.335 35.8348C196.243 35.811 196.091 35.7695 195.881 35.711C195.673 35.6525 195.519 35.5963 195.421 35.5425C195.324 35.4887 195.195 35.421 195.034 35.3378C194.873 35.2555 194.754 35.1647 194.676 35.0678C194.597 34.9693 194.512 34.8556 194.42 34.7239C194.327 34.5925 194.263 34.443 194.23 34.2777C194.196 34.1122 194.178 33.9315 194.178 33.7368C194.178 32.9952 194.466 32.4251 195.041 32.0257C195.616 31.625 196.431 31.4256 197.483 31.4256C198.43 31.4256 199.205 31.6203 199.809 32.0103C200.414 32.4005 200.731 33.0098 200.76 33.8383L200.76 33.8384ZM204.169 28.7784V30.5332H202.092V28.7784H204.169ZM204.169 31.645V39.1918H202.092V31.645H204.169ZM207.651 28.7784V32.5666C208.236 31.8349 209.031 31.4695 210.036 31.4695C211.04 31.4695 211.829 31.8349 212.404 32.5666C212.979 33.2975 213.268 34.2239 213.268 35.3456C213.268 36.5543 212.958 37.5322 212.339 38.2777C211.719 39.0233 210.913 39.3962 209.918 39.3962C208.875 39.3962 208.085 39.0116 207.549 38.2407L207.564 39.1917H205.589V28.7783H207.651V28.7784ZM209.392 33.0644C208.835 33.0644 208.394 33.2706 208.067 33.6853C207.741 34.0993 207.577 34.6624 207.577 35.3748C207.577 36.1057 207.739 36.6812 208.06 37.1006C208.382 37.5197 208.826 37.7299 209.392 37.7299C209.928 37.7299 210.359 37.5151 210.686 37.086C211.012 36.6567 211.176 36.0819 211.176 35.3595C211.176 34.6677 211.012 34.1123 210.686 33.693C210.359 33.2729 209.928 33.0643 209.392 33.0643L209.392 33.0644ZM216.472 28.7784V39.1918H214.395V28.7784H216.472ZM224.999 36.8521C224.766 37.6607 224.334 38.29 223.706 38.7386C223.076 39.1872 222.328 39.4111 221.46 39.4111C220.3 39.4111 219.366 39.0502 218.659 38.3284C217.953 37.6077 217.598 36.6521 217.598 35.4625C217.598 34.2924 217.955 33.3275 218.666 32.5667C219.378 31.8067 220.285 31.4258 221.387 31.4258C222.528 31.4258 223.435 31.8135 224.107 32.5891C224.78 33.3631 225.117 34.4148 225.117 35.7405V35.945H219.705C219.715 36.5983 219.873 37.0953 220.18 37.4369C220.487 37.7784 220.919 37.9492 221.475 37.9492C222.206 37.9492 222.718 37.5831 223.011 36.8522H224.999V36.8521ZM223.011 34.6286C222.962 34.1316 222.801 33.7245 222.528 33.4069C222.255 33.0907 221.875 32.9322 221.387 32.9322C220.929 32.9322 220.548 33.0829 220.246 33.3852C219.943 33.6877 219.764 34.1015 219.705 34.6286H223.011H223.011ZM237.39 31.645V38.4024C237.39 39.641 237.083 40.5505 236.469 41.1298C235.854 41.7098 234.922 42 233.675 42C231.52 42 230.34 41.2153 230.136 39.6457H232.198C232.276 39.9873 232.437 40.2326 232.68 40.3843C232.924 40.535 233.271 40.6104 233.719 40.6104C234.372 40.6104 234.811 40.4519 235.036 40.1349C235.259 39.8187 235.376 39.3232 235.386 38.6509L235.4 37.8021C234.835 38.5823 234.065 38.9725 233.09 38.9725C232.105 38.9725 231.323 38.6363 230.743 37.963C230.163 37.2905 229.872 36.3889 229.872 35.258C229.872 34.1069 230.175 33.1829 230.779 32.4858C231.383 31.7888 232.183 31.4403 233.178 31.4403C233.704 31.4403 234.141 31.535 234.486 31.7258C234.832 31.9158 235.148 32.2251 235.43 32.6545V31.645H237.39H237.39ZM234.947 33.6191C234.635 33.2398 234.206 33.049 233.66 33.049C233.114 33.049 232.687 33.2421 232.38 33.6268C232.073 34.0114 231.919 34.5508 231.919 35.2433C231.919 35.9064 232.078 36.4351 232.395 36.8297C232.712 37.2245 233.139 37.4221 233.675 37.4221C234.211 37.4221 234.635 37.222 234.947 36.8228C235.259 36.4227 235.416 35.881 235.416 35.1993C235.416 34.5262 235.259 34 234.947 33.619V33.6191ZM243.782 31.5133V33.4292C243.49 33.3715 243.222 33.3413 242.978 33.3413C242.296 33.3413 241.794 33.5584 241.472 33.9922C241.15 34.4263 240.989 35.0087 240.989 35.7404V39.1918H238.912V31.645H240.887V33.0344C241.384 31.9911 242.198 31.4695 243.329 31.4695C243.427 31.4695 243.578 31.4841 243.782 31.5133H243.782ZM247.821 31.4257C248.98 31.4257 249.914 31.7911 250.621 32.5228C251.328 33.2537 251.682 34.2193 251.682 35.4186C251.682 36.6274 251.328 37.5983 250.621 38.3284C249.914 39.06 248.971 39.4263 247.791 39.4263C246.611 39.4263 245.665 39.06 244.953 38.3284C244.242 37.5983 243.885 36.6274 243.885 35.4186C243.885 34.2193 244.247 33.2537 244.968 32.5228C245.69 31.7911 246.641 31.4257 247.821 31.4257H247.821ZM247.762 33.0052C247.206 33.0052 246.768 33.2199 246.445 33.6492C246.124 34.0777 245.963 34.6677 245.963 35.4186C245.963 36.1888 246.124 36.7881 246.445 37.2174C246.768 37.6467 247.216 37.8615 247.791 37.8615C248.366 37.8615 248.813 37.6444 249.13 37.2105C249.447 36.7765 249.605 36.1741 249.605 35.4032C249.605 34.653 249.441 34.0661 249.115 33.6413C248.788 33.2174 248.337 33.0051 247.762 33.0051V33.0052ZM259.918 31.645V39.1918H257.943V38.1246C257.358 38.9817 256.539 39.4111 255.485 39.4111C254.657 39.4111 254.01 39.1847 253.547 38.7317C253.085 38.2777 252.853 37.6076 252.853 36.7204V31.645H254.945V35.9595C254.945 36.2427 254.957 36.4697 254.981 36.6397C255.005 36.8106 255.057 36.9836 255.135 37.1591C255.213 37.3346 255.342 37.4638 255.522 37.5461C255.702 37.6291 255.934 37.6707 256.217 37.6707C257.309 37.6707 257.855 36.959 257.855 35.5357V31.645H259.918ZM263.268 31.645V32.5805C263.814 31.8203 264.594 31.4403 265.609 31.4403C266.622 31.4403 267.437 31.8066 268.051 32.5366C268.665 33.2683 268.973 34.244 268.973 35.4624C268.973 36.642 268.672 37.5898 268.072 38.3069C267.472 39.0233 266.681 39.3826 265.696 39.3826C264.682 39.3826 263.906 39.0063 263.37 38.2562V41.8684H261.308V31.6451H263.268L263.268 31.645ZM265.096 33.1084C264.531 33.1084 264.09 33.3122 263.772 33.7223C263.455 34.1316 263.297 34.7016 263.297 35.4333C263.297 36.1642 263.458 36.7351 263.78 37.1445C264.102 37.5546 264.546 37.7584 265.111 37.7584C265.666 37.7584 266.103 37.5546 266.42 37.1445C266.736 36.7351 266.895 36.1742 266.895 35.4625C266.895 34.731 266.734 34.1562 266.413 33.7369C266.091 33.3168 265.653 33.1084 265.096 33.1084H265.096Z" fill="#06274D"/>
</svg>
