<svg width="224" height="33" viewBox="0 0 224 33" fill="none" xmlns="http://www.w3.org/2000/svg">
<path d="M11.296 14.832H9.84V12H1.6V14.832H0.144V10.688H1.264C1.70133 9.90933 2.05867 8.79467 2.336 7.344C2.61333 5.88267 2.752 4.37333 2.752 2.816V0.608H10.032V10.688H11.296V14.832ZM8.528 10.688V1.92H4.224V3.472C4.224 4.848 4.096 6.21333 3.84 7.568C3.59467 8.912 3.29067 9.952 2.928 10.688H8.528ZM14.3149 12H12.5709V3.744H13.9309V10.48H13.9629L17.6749 3.744H19.4189V12H18.0589V5.264H18.0269L14.3149 12ZM20.9975 6.128C21.0615 5.18933 21.4188 4.51733 22.0695 4.112C22.7202 3.70667 23.5255 3.504 24.4855 3.504C25.3922 3.504 26.1335 3.69067 26.7095 4.064C27.2962 4.43733 27.5895 4.992 27.5895 5.728C27.5895 6.176 27.4562 6.56 27.1895 6.88C26.9335 7.2 26.6242 7.39733 26.2615 7.472V7.504C26.6988 7.58933 27.0722 7.808 27.3815 8.16C27.7015 8.50133 27.8615 8.96533 27.8615 9.552C27.8615 10.4053 27.5255 11.072 26.8535 11.552C26.1815 12.0213 25.3762 12.256 24.4375 12.256C23.3602 12.256 22.5015 12.0107 21.8615 11.52C21.2322 11.0187 20.8962 10.32 20.8535 9.424H22.2295C22.2722 10 22.4908 10.432 22.8855 10.72C23.2802 11.008 23.7922 11.152 24.4215 11.152C25.0508 11.152 25.5468 11.0027 25.9095 10.704C26.2722 10.3947 26.4535 10.0213 26.4535 9.584C26.4535 8.688 25.8668 8.24 24.6935 8.24H23.5575V7.136H24.4695C24.9922 7.136 25.4135 7.02933 25.7335 6.816C26.0535 6.592 26.2135 6.25067 26.2135 5.792C26.2135 5.472 26.0535 5.19467 25.7335 4.96C25.4242 4.72533 25.0028 4.608 24.4695 4.608C23.9255 4.608 23.4508 4.73067 23.0455 4.976C22.6508 5.22133 22.4268 5.60533 22.3735 6.128H20.9975ZM36.7735 10.912V11.968C36.4962 12.0747 36.1868 12.128 35.8455 12.128C35.0668 12.128 34.6668 11.7227 34.6455 10.912C33.8668 11.7867 32.8695 12.224 31.6535 12.224C30.8428 12.224 30.1975 12.016 29.7175 11.6C29.2482 11.184 29.0135 10.6133 29.0135 9.888C29.0135 8.416 29.9895 7.55733 31.9415 7.312C32.0695 7.29067 32.2562 7.26933 32.5015 7.248C33.4295 7.14133 34.0002 7.01867 34.2135 6.88C34.4588 6.70933 34.5815 6.416 34.5815 6C34.5815 5.09333 33.9575 4.64 32.7095 4.64C32.0695 4.64 31.5842 4.77333 31.2535 5.04C30.9228 5.296 30.7255 5.72267 30.6615 6.32H29.3335C29.3548 5.43467 29.6695 4.74667 30.2775 4.256C30.8855 3.76533 31.7228 3.52 32.7895 3.52C33.9522 3.52 34.8162 3.78667 35.3815 4.32C35.5628 4.49067 35.6962 4.71467 35.7815 4.992C35.8668 5.26933 35.9148 5.49867 35.9255 5.68C35.9362 5.85067 35.9415 6.112 35.9415 6.464C35.9415 6.86933 35.9308 7.48267 35.9095 8.304C35.8882 9.12533 35.8775 9.73867 35.8775 10.144C35.8775 10.4427 35.9148 10.656 35.9895 10.784C36.0748 10.9013 36.2242 10.96 36.4375 10.96C36.5228 10.96 36.6348 10.944 36.7735 10.912ZM34.5815 7.712C34.4855 7.78667 34.3842 7.85067 34.2775 7.904C34.1708 7.95733 34.0322 8 33.8615 8.032C33.7015 8.064 33.5895 8.09067 33.5255 8.112C33.4722 8.12267 33.3335 8.144 33.1095 8.176C32.8855 8.19733 32.7682 8.208 32.7575 8.208C32.4268 8.25067 32.2082 8.28267 32.1015 8.304C32.0055 8.31467 31.8135 8.35733 31.5255 8.432C31.2482 8.50667 31.0508 8.592 30.9335 8.688C30.8162 8.784 30.6988 8.928 30.5815 9.12C30.4748 9.30133 30.4215 9.52 30.4215 9.776C30.4215 10.2027 30.5655 10.5387 30.8535 10.784C31.1522 11.0293 31.5575 11.152 32.0695 11.152C32.7202 11.152 33.3015 10.96 33.8135 10.576C34.3255 10.192 34.5815 9.73867 34.5815 9.216V7.712ZM43.8953 0.608C43.7886 1.28 43.5273 1.81867 43.1113 2.224C42.7059 2.61867 42.1673 2.816 41.4953 2.816C40.8446 2.816 40.2953 2.61333 39.8473 2.208C39.4099 1.792 39.1486 1.25867 39.0633 0.608H39.8793C40.1246 1.44 40.6579 1.856 41.4793 1.856C42.2686 1.856 42.8019 1.44 43.0793 0.608H43.8953ZM39.7993 12H38.0553V3.744H39.4153V10.48H39.4473L43.1593 3.744H44.9033V12H43.5433V5.264H43.5113L39.7993 12ZM48.3059 12H46.9459V3.744H48.3059V7.024H52.4339V3.744H53.7939V12H52.4339V8.224H48.3059V12ZM62.0336 12H60.2896V3.744H61.6496V10.48H61.6816L65.3936 3.744H67.1376V12H65.7776V5.264H65.7456L62.0336 12ZM2.304 19.744V20.912C2.90133 19.9627 3.82933 19.488 5.088 19.488C6.24 19.488 7.152 19.8773 7.824 20.656C8.50667 21.4347 8.848 22.4907 8.848 23.824C8.848 25.1573 8.512 26.224 7.84 27.024C7.17867 27.8133 6.28267 28.208 5.152 28.208C3.968 28.208 3.04533 27.7547 2.384 26.848V31.184H1.024V19.744H2.304ZM4.88 20.624C4.09067 20.624 3.46667 20.912 3.008 21.488C2.56 22.0533 2.336 22.8373 2.336 23.84C2.336 24.8427 2.56533 25.632 3.024 26.208C3.49333 26.7733 4.128 27.056 4.928 27.056C5.70667 27.056 6.32 26.768 6.768 26.192C7.216 25.616 7.44 24.832 7.44 23.84C7.44 22.8373 7.21067 22.0533 6.752 21.488C6.304 20.912 5.68 20.624 4.88 20.624ZM17.8204 26.912V27.968C17.543 28.0747 17.2337 28.128 16.8924 28.128C16.1137 28.128 15.7137 27.7227 15.6924 26.912C14.9137 27.7867 13.9164 28.224 12.7004 28.224C11.8897 28.224 11.2444 28.016 10.7644 27.6C10.295 27.184 10.0604 26.6133 10.0604 25.888C10.0604 24.416 11.0364 23.5573 12.9884 23.312C13.1164 23.2907 13.303 23.2693 13.5484 23.248C14.4764 23.1413 15.047 23.0187 15.2604 22.88C15.5057 22.7093 15.6284 22.416 15.6284 22C15.6284 21.0933 15.0044 20.64 13.7564 20.64C13.1164 20.64 12.631 20.7733 12.3004 21.04C11.9697 21.296 11.7724 21.7227 11.7084 22.32H10.3804C10.4017 21.4347 10.7164 20.7467 11.3244 20.256C11.9324 19.7653 12.7697 19.52 13.8364 19.52C14.999 19.52 15.863 19.7867 16.4284 20.32C16.6097 20.4907 16.743 20.7147 16.8284 20.992C16.9137 21.2693 16.9617 21.4987 16.9724 21.68C16.983 21.8507 16.9884 22.112 16.9884 22.464C16.9884 22.8693 16.9777 23.4827 16.9564 24.304C16.935 25.1253 16.9244 25.7387 16.9244 26.144C16.9244 26.4427 16.9617 26.656 17.0364 26.784C17.1217 26.9013 17.271 26.96 17.4844 26.96C17.5697 26.96 17.6817 26.944 17.8204 26.912ZM15.6284 23.712C15.5324 23.7867 15.431 23.8507 15.3244 23.904C15.2177 23.9573 15.079 24 14.9084 24.032C14.7484 24.064 14.6364 24.0907 14.5724 24.112C14.519 24.1227 14.3804 24.144 14.1564 24.176C13.9324 24.1973 13.815 24.208 13.8044 24.208C13.4737 24.2507 13.255 24.2827 13.1484 24.304C13.0524 24.3147 12.8604 24.3573 12.5724 24.432C12.295 24.5067 12.0977 24.592 11.9804 24.688C11.863 24.784 11.7457 24.928 11.6284 25.12C11.5217 25.3013 11.4684 25.52 11.4684 25.776C11.4684 26.2027 11.6124 26.5387 11.9004 26.784C12.199 27.0293 12.6044 27.152 13.1164 27.152C13.767 27.152 14.3484 26.96 14.8604 26.576C15.3724 26.192 15.6284 25.7387 15.6284 25.216V23.712ZM18.6381 22.128C18.7021 21.1893 19.0595 20.5173 19.7101 20.112C20.3608 19.7067 21.1661 19.504 22.1261 19.504C23.0328 19.504 23.7741 19.6907 24.3501 20.064C24.9368 20.4373 25.2301 20.992 25.2301 21.728C25.2301 22.176 25.0968 22.56 24.8301 22.88C24.5741 23.2 24.2648 23.3973 23.9021 23.472V23.504C24.3395 23.5893 24.7128 23.808 25.0221 24.16C25.3421 24.5013 25.5021 24.9653 25.5021 25.552C25.5021 26.4053 25.1661 27.072 24.4941 27.552C23.8221 28.0213 23.0168 28.256 22.0781 28.256C21.0008 28.256 20.1421 28.0107 19.5021 27.52C18.8728 27.0187 18.5368 26.32 18.4941 25.424H19.8701C19.9128 26 20.1315 26.432 20.5261 26.72C20.9208 27.008 21.4328 27.152 22.0621 27.152C22.6915 27.152 23.1875 27.0027 23.5501 26.704C23.9128 26.3947 24.0941 26.0213 24.0941 25.584C24.0941 24.688 23.5075 24.24 22.3341 24.24H21.1981V23.136H22.1101C22.6328 23.136 23.0541 23.0293 23.3741 22.816C23.6941 22.592 23.8541 22.2507 23.8541 21.792C23.8541 21.472 23.6941 21.1947 23.3741 20.96C23.0648 20.7253 22.6435 20.608 22.1101 20.608C21.5661 20.608 21.0915 20.7307 20.6861 20.976C20.2915 21.2213 20.0675 21.6053 20.0141 22.128H18.6381ZM28.3821 19.744V20.912C28.9795 19.9627 29.9075 19.488 31.1661 19.488C32.3181 19.488 33.2301 19.8773 33.9021 20.656C34.5848 21.4347 34.9261 22.4907 34.9261 23.824C34.9261 25.1573 34.5901 26.224 33.9181 27.024C33.2568 27.8133 32.3608 28.208 31.2301 28.208C30.0461 28.208 29.1235 27.7547 28.4621 26.848V31.184H27.1021V19.744H28.3821ZM30.9581 20.624C30.1688 20.624 29.5448 20.912 29.0861 21.488C28.6381 22.0533 28.4141 22.8373 28.4141 23.84C28.4141 24.8427 28.6435 25.632 29.1021 26.208C29.5715 26.7733 30.2061 27.056 31.0061 27.056C31.7848 27.056 32.3981 26.768 32.8461 26.192C33.2941 25.616 33.5181 24.832 33.5181 23.84C33.5181 22.8373 33.2888 22.0533 32.8301 21.488C32.3821 20.912 31.7581 20.624 30.9581 20.624ZM43.8985 26.912V27.968C43.6212 28.0747 43.3118 28.128 42.9705 28.128C42.1918 28.128 41.7918 27.7227 41.7705 26.912C40.9918 27.7867 39.9945 28.224 38.7785 28.224C37.9678 28.224 37.3225 28.016 36.8425 27.6C36.3732 27.184 36.1385 26.6133 36.1385 25.888C36.1385 24.416 37.1145 23.5573 39.0665 23.312C39.1945 23.2907 39.3812 23.2693 39.6265 23.248C40.5545 23.1413 41.1252 23.0187 41.3385 22.88C41.5838 22.7093 41.7065 22.416 41.7065 22C41.7065 21.0933 41.0825 20.64 39.8345 20.64C39.1945 20.64 38.7092 20.7733 38.3785 21.04C38.0478 21.296 37.8505 21.7227 37.7865 22.32H36.4585C36.4798 21.4347 36.7945 20.7467 37.4025 20.256C38.0105 19.7653 38.8478 19.52 39.9145 19.52C41.0772 19.52 41.9412 19.7867 42.5065 20.32C42.6878 20.4907 42.8212 20.7147 42.9065 20.992C42.9918 21.2693 43.0398 21.4987 43.0505 21.68C43.0612 21.8507 43.0665 22.112 43.0665 22.464C43.0665 22.8693 43.0558 23.4827 43.0345 24.304C43.0132 25.1253 43.0025 25.7387 43.0025 26.144C43.0025 26.4427 43.0398 26.656 43.1145 26.784C43.1998 26.9013 43.3492 26.96 43.5625 26.96C43.6478 26.96 43.7598 26.944 43.8985 26.912ZM41.7065 23.712C41.6105 23.7867 41.5092 23.8507 41.4025 23.904C41.2958 23.9573 41.1572 24 40.9865 24.032C40.8265 24.064 40.7145 24.0907 40.6505 24.112C40.5972 24.1227 40.4585 24.144 40.2345 24.176C40.0105 24.1973 39.8932 24.208 39.8825 24.208C39.5518 24.2507 39.3332 24.2827 39.2265 24.304C39.1305 24.3147 38.9385 24.3573 38.6505 24.432C38.3732 24.5067 38.1758 24.592 38.0585 24.688C37.9412 24.784 37.8238 24.928 37.7065 25.12C37.5998 25.3013 37.5465 25.52 37.5465 25.776C37.5465 26.2027 37.6905 26.5387 37.9785 26.784C38.2772 27.0293 38.6825 27.152 39.1945 27.152C39.8452 27.152 40.4265 26.96 40.9385 26.576C41.4505 26.192 41.7065 25.7387 41.7065 25.216V23.712ZM45.9483 18.592C46.3109 18.0267 46.7483 17.6107 47.2603 17.344C47.7723 17.0667 48.4229 16.9013 49.2123 16.848C50.0976 16.784 50.6363 16.6987 50.8283 16.592C50.9563 16.528 51.0523 16.4427 51.1163 16.336H52.4763C52.4443 16.5067 52.3963 16.6613 52.3323 16.8C52.2789 16.9387 52.2149 17.0613 52.1403 17.168C52.0763 17.264 51.9803 17.3547 51.8523 17.44C51.7349 17.5253 51.6336 17.6 51.5483 17.664C51.4629 17.7173 51.3349 17.7707 51.1643 17.824C51.0043 17.8667 50.8763 17.904 50.7803 17.936C50.6843 17.9573 50.5349 17.9787 50.3323 18C50.1403 18.0213 50.0016 18.0373 49.9163 18.048C49.8309 18.0587 49.6763 18.0693 49.4523 18.08C49.2283 18.0907 49.0843 18.1013 49.0203 18.112C48.1456 18.176 47.4629 18.5173 46.9723 19.136C46.4816 19.744 46.1723 20.56 46.0443 21.584H46.0923C46.3269 21.0187 46.7003 20.5653 47.2123 20.224C47.7243 19.8827 48.3163 19.712 48.9883 19.712C50.1616 19.712 51.0789 20.0853 51.7403 20.832C52.4123 21.568 52.7483 22.6027 52.7483 23.936C52.7483 25.312 52.4069 26.3787 51.7243 27.136C51.0523 27.8933 50.1029 28.272 48.8763 28.272C47.8736 28.272 47.0256 27.9787 46.3323 27.392C45.6389 26.7947 45.2123 25.9413 45.0523 24.832C44.9883 24.384 44.9563 23.8827 44.9563 23.328C44.9563 21.184 45.2869 19.6053 45.9483 18.592ZM46.3483 23.984C46.3483 24.9227 46.5723 25.68 47.0203 26.256C47.4789 26.832 48.1029 27.12 48.8923 27.12C49.6603 27.12 50.2629 26.8427 50.7003 26.288C51.1376 25.7333 51.3563 24.96 51.3563 23.968C51.3563 22.9973 51.1323 22.2347 50.6843 21.68C50.2363 21.1253 49.6283 20.848 48.8602 20.848C48.0923 20.848 47.4789 21.1307 47.0203 21.696C46.5723 22.2507 46.3483 23.0133 46.3483 23.984ZM55.0238 20.688C55.7491 19.8987 56.7358 19.504 57.9838 19.504C59.2318 19.504 60.2024 19.8827 60.8958 20.64C61.5891 21.3973 61.9358 22.4587 61.9358 23.824C61.9358 25.2213 61.5891 26.3093 60.8958 27.088C60.2024 27.8667 59.2264 28.256 57.9678 28.256C56.7091 28.256 55.7224 27.872 55.0078 27.104C54.2931 26.336 53.9358 25.2693 53.9358 23.904C53.9358 22.5493 54.2984 21.4773 55.0238 20.688ZM59.8398 21.52C59.3811 20.9333 58.7518 20.64 57.9518 20.64C57.1518 20.64 56.5171 20.9333 56.0478 21.52C55.5784 22.1067 55.3438 22.8907 55.3438 23.872C55.3438 24.8853 55.5731 25.68 56.0318 26.256C56.5011 26.8213 57.1518 27.104 57.9838 27.104C58.7838 27.104 59.4078 26.816 59.8558 26.24C60.3144 25.664 60.5438 24.8693 60.5438 23.856C60.5438 22.8747 60.3091 22.096 59.8398 21.52ZM69.594 20.944H66.634V28H65.274V20.944H62.314V19.744H69.594V20.944ZM78.0723 28H76.3443L73.3363 23.936L72.0403 25.2V28H70.6803V19.744H72.0403V23.68L75.8163 19.744H77.6403L74.3123 22.992L78.0723 28ZM86.2891 26.912V27.968C86.0118 28.0747 85.7025 28.128 85.3611 28.128C84.5825 28.128 84.1825 27.7227 84.1611 26.912C83.3825 27.7867 82.3851 28.224 81.1691 28.224C80.3585 28.224 79.7131 28.016 79.2331 27.6C78.7638 27.184 78.5291 26.6133 78.5291 25.888C78.5291 24.416 79.5051 23.5573 81.4571 23.312C81.5851 23.2907 81.7718 23.2693 82.0171 23.248C82.9451 23.1413 83.5158 23.0187 83.7291 22.88C83.9745 22.7093 84.0971 22.416 84.0971 22C84.0971 21.0933 83.4731 20.64 82.2251 20.64C81.5851 20.64 81.0998 20.7733 80.7691 21.04C80.4385 21.296 80.2411 21.7227 80.1771 22.32H78.8491C78.8705 21.4347 79.1851 20.7467 79.7931 20.256C80.4011 19.7653 81.2385 19.52 82.3051 19.52C83.4678 19.52 84.3318 19.7867 84.8971 20.32C85.0785 20.4907 85.2118 20.7147 85.2971 20.992C85.3825 21.2693 85.4305 21.4987 85.4411 21.68C85.4518 21.8507 85.4571 22.112 85.4571 22.464C85.4571 22.8693 85.4465 23.4827 85.4251 24.304C85.4038 25.1253 85.3931 25.7387 85.3931 26.144C85.3931 26.4427 85.4305 26.656 85.5051 26.784C85.5905 26.9013 85.7398 26.96 85.9531 26.96C86.0385 26.96 86.1505 26.944 86.2891 26.912ZM84.0971 23.712C84.0011 23.7867 83.8998 23.8507 83.7931 23.904C83.6865 23.9573 83.5478 24 83.3771 24.032C83.2171 24.064 83.1051 24.0907 83.0411 24.112C82.9878 24.1227 82.8491 24.144 82.6251 24.176C82.4011 24.1973 82.2838 24.208 82.2731 24.208C81.9425 24.2507 81.7238 24.2827 81.6171 24.304C81.5211 24.3147 81.3291 24.3573 81.0411 24.432C80.7638 24.5067 80.5665 24.592 80.4491 24.688C80.3318 24.784 80.2145 24.928 80.0971 25.12C79.9905 25.3013 79.9371 25.52 79.9371 25.776C79.9371 26.2027 80.0811 26.5387 80.3691 26.784C80.6678 27.0293 81.0731 27.152 81.5851 27.152C82.2358 27.152 82.8171 26.96 83.3291 26.576C83.8411 26.192 84.0971 25.7387 84.0971 25.216V23.712Z" fill="white"/>
<g clip-path="url(#clip0)">
<path d="M99.3299 19.5443C99.7739 20.2411 100.44 20.8507 101.372 21.2862C102.26 21.7216 103.237 21.9393 104.303 21.9393C104.835 21.9393 105.368 21.8958 105.856 21.7652C106.345 21.6345 106.744 21.4603 107.144 21.2426C107.499 21.0249 107.81 20.7636 107.988 20.4588C108.21 20.154 108.298 19.8491 108.298 19.5008C108.298 18.9782 108.032 18.4992 107.455 18.1509C106.878 17.8025 106.167 17.4541 105.279 17.1493C104.391 16.8445 103.459 16.5397 102.482 16.2348C101.461 15.93 100.529 15.5381 99.6851 15.1026C98.7972 14.6236 98.0868 14.1011 97.5096 13.4044C96.9324 12.7512 96.666 11.8802 96.666 10.8787C96.666 10.0513 96.888 9.2675 97.2876 8.52722C97.6872 7.83048 98.2644 7.17729 98.9748 6.65474C99.5963 6.13219 100.44 5.74028 101.417 5.43546C102.393 5.13064 103.459 5 104.613 5C106.478 5 108.121 5.39191 109.586 6.13219C111.007 6.87247 111.983 7.91757 112.516 9.1804L109.497 10.9222C109.142 10.2255 108.565 9.70295 107.721 9.31104C106.922 8.91913 105.945 8.74495 104.88 8.74495C103.77 8.74495 102.882 8.91913 102.171 9.31104C101.461 9.70295 101.106 10.182 101.061 10.7481C101.061 11.1835 101.372 11.5319 101.949 11.8367C102.527 12.1415 103.281 12.4028 104.125 12.7076C105.013 12.9689 105.945 13.2737 106.966 13.6221C107.988 13.9269 108.92 14.3624 109.808 14.8414C110.696 15.3204 111.406 15.93 111.983 16.6703C112.561 17.4106 112.871 18.325 112.871 19.4137C112.871 20.2846 112.649 21.1555 112.25 21.9393C111.806 22.7232 111.229 23.3764 110.474 23.986C109.719 24.5521 108.831 24.9876 107.81 25.3359C106.789 25.6407 105.679 25.8149 104.436 25.8149C102.571 25.8149 100.884 25.423 99.4187 24.6827C97.9536 23.8989 96.8436 22.8538 96.0889 21.5474L99.3299 19.5443Z" fill="white"/>
<path d="M128.544 25.6841C127.256 25.6841 126.058 25.4664 124.903 24.9874C123.793 24.5084 122.817 23.8116 121.973 22.8972V32.9998H117.444V5.47883H122.017V7.9174C122.905 6.95939 123.882 6.26265 125.036 5.78365C126.146 5.30464 127.345 5.08691 128.588 5.08691C129.965 5.08691 131.252 5.34819 132.451 5.91429C133.65 6.48038 134.715 7.22066 135.648 8.13513C136.58 9.09314 137.29 10.1818 137.823 11.4446C138.356 12.7074 138.622 14.0574 138.622 15.4944C138.622 16.8878 138.356 18.1942 137.823 19.4571C137.29 20.6763 136.58 21.765 135.692 22.723C134.804 23.6375 133.738 24.3777 132.495 24.9003C131.252 25.4228 129.965 25.6841 128.544 25.6841ZM122.017 15.3637C122.017 16.2347 122.195 17.0185 122.506 17.8023C122.817 18.5426 123.261 19.1958 123.793 19.7619C124.326 20.328 124.992 20.7634 125.702 21.0683C126.413 21.3731 127.212 21.5473 128.056 21.5473C128.899 21.5473 129.698 21.3731 130.453 21.0683C131.163 20.7634 131.829 20.328 132.362 19.7619C132.895 19.1958 133.339 18.5426 133.65 17.7588C133.96 16.9749 134.138 16.1911 134.138 15.3202C134.138 14.4493 134.005 13.6655 133.694 12.8816C133.383 12.1413 132.984 11.4882 132.451 10.9221C131.918 10.356 131.297 9.96405 130.542 9.65923C129.831 9.35441 129.032 9.18023 128.144 9.18023C127.301 9.18023 126.502 9.35441 125.747 9.65923C124.992 9.96405 124.37 10.3995 123.838 10.9656C123.305 11.5317 122.861 12.1849 122.55 12.9252C122.151 13.6655 122.017 14.4928 122.017 15.3637Z" fill="white"/>
<path d="M151.587 5.08691C152.874 5.08691 154.073 5.30464 155.227 5.78365C156.337 6.26265 157.314 6.95939 158.158 7.87385V5.43528H162.731V25.3357H158.158V22.8536C157.27 23.8116 156.293 24.5084 155.139 24.9874C154.029 25.4664 152.83 25.7277 151.587 25.7277C150.255 25.7277 148.967 25.4664 147.724 24.9003C146.481 24.3342 145.415 23.5939 144.527 22.6359C143.595 21.6779 142.885 20.5892 142.352 19.3264C141.819 18.0636 141.553 16.7137 141.553 15.2766C141.553 13.8832 141.819 12.5768 142.352 11.314C142.885 10.0947 143.595 9.00604 144.527 8.04803C145.415 7.13357 146.481 6.39329 147.724 5.87074C148.923 5.34819 150.21 5.08691 151.587 5.08691ZM158.158 15.4073C158.158 14.5364 157.98 13.7525 157.669 12.9687C157.358 12.2284 156.915 11.5753 156.382 11.0092C155.849 10.4431 155.183 10.0076 154.473 9.70278C153.762 9.39796 152.963 9.22377 152.12 9.22377C151.276 9.22377 150.477 9.39796 149.722 9.70278C149.012 10.0076 148.346 10.4431 147.813 11.0092C147.28 11.5753 146.836 12.2284 146.525 12.9687C146.215 13.709 146.037 14.5364 146.037 15.4508C146.037 16.3218 146.17 17.1491 146.481 17.8894C146.792 18.6297 147.191 19.2829 147.724 19.849C148.257 20.4151 148.878 20.807 149.633 21.1118C150.344 21.4166 151.143 21.5908 152.031 21.5908C152.919 21.5908 153.673 21.4166 154.428 21.1118C155.183 20.807 155.805 20.3715 156.337 19.8054C156.87 19.2393 157.314 18.5861 157.625 17.8459C157.98 17.062 158.158 16.2782 158.158 15.4073Z" fill="white"/>
<path d="M182.31 11.75C181.733 10.9662 180.978 10.3565 180.09 9.87754C179.202 9.39853 178.225 9.1808 177.293 9.1808C176.494 9.1808 175.739 9.35499 174.984 9.65981C174.274 10.0082 173.608 10.4436 173.075 11.0097C172.542 11.5758 172.098 12.229 171.788 13.0128C171.477 13.7531 171.299 14.5805 171.299 15.4079C171.299 16.2352 171.477 17.0626 171.788 17.8029C172.098 18.5432 172.542 19.1964 173.075 19.7625C173.608 20.3285 174.274 20.764 174.984 21.0688C175.739 21.3737 176.538 21.5478 177.382 21.5478C178.359 21.5478 179.247 21.3301 180.09 20.9382C180.934 20.5027 181.688 19.8931 182.266 19.0657L185.24 21.9397C183.065 24.4219 180.445 25.6847 177.293 25.6847C175.828 25.6847 174.407 25.4234 173.12 24.9009C171.832 24.3783 170.722 23.638 169.745 22.7236C168.769 21.8091 168.014 20.7205 167.481 19.4576C166.948 18.1948 166.682 16.8884 166.682 15.4514C166.682 14.0144 166.948 12.6645 167.481 11.4016C168.014 10.1388 168.769 9.05017 169.701 8.09216C170.633 7.13415 171.788 6.39387 173.075 5.87132C174.363 5.30522 175.739 5.04395 177.204 5.04395C178.758 5.04395 180.223 5.34877 181.6 6.00195C182.976 6.65514 184.175 7.56961 185.24 8.78889L182.31 11.75Z" fill="white"/>
<path d="M206.241 22.0698C205.397 23.1585 204.287 24.0294 202.822 24.6826C201.401 25.3357 199.848 25.6406 198.249 25.6406C196.828 25.6406 195.452 25.3793 194.209 24.8567C192.921 24.3342 191.811 23.5939 190.835 22.6359C189.858 21.6779 189.103 20.5892 188.57 19.3264C188.038 18.0636 187.771 16.7572 187.771 15.3202C187.771 13.8832 188.038 12.5768 188.615 11.314C189.192 10.0947 189.947 9.00604 190.924 8.04803C191.9 7.13357 193.055 6.39329 194.342 5.87074C195.63 5.34819 197.05 5.08691 198.516 5.08691C200.114 5.08691 201.623 5.39174 202.955 6.04492C204.287 6.65457 205.442 7.52548 206.374 8.61413C207.306 9.70278 208.017 10.9656 208.461 12.4462C208.949 13.9267 209.082 15.5379 208.949 17.2362H192.788C192.966 17.8894 193.188 18.4555 193.587 18.978C193.943 19.5006 194.387 19.9796 194.919 20.3715C195.452 20.7634 196.029 21.0683 196.695 21.286C197.361 21.5037 198.027 21.5908 198.738 21.5908C199.714 21.5908 200.647 21.3731 201.446 20.9812C202.245 20.5892 202.955 19.9796 203.577 19.2393L206.241 22.0698ZM204.065 13.5784C203.71 12.272 203 11.2269 201.979 10.3995C200.958 9.57214 199.759 9.18023 198.382 9.18023C197.05 9.18023 195.896 9.57214 194.875 10.356C193.854 11.1398 193.143 12.2284 192.699 13.5784H204.065Z" fill="white"/>
<path d="M219.915 25.684C222.196 25.684 224.044 23.8709 224.044 21.6342C224.044 19.3976 222.196 17.5845 219.915 17.5845C217.635 17.5845 215.786 19.3976 215.786 21.6342C215.786 23.8709 217.635 25.684 219.915 25.684Z" fill="#FF0000"/>
</g>
<defs>
<clipPath id="clip0">
<rect width="128" height="28" fill="white" transform="translate(96 5)"/>
</clipPath>
</defs>
</svg>
