<svg width="810" height="632" viewBox="0 0 810 632" fill="none" xmlns="http://www.w3.org/2000/svg">
<path d="M274.938 440.665C187.707 390.063 126.206 321.865 91.913 237.631C29.045 83.2103 -61.5668 -9.9027 -126.51 -60.823C-196.869 -115.989 -253.091 -134.893 -253.651 -135.078L-253.666 -135.977C-253.104 -135.792 -196.651 -116.819 -126.052 -61.4807C-84.6037 -28.9903 -46.4479 9.49927 -12.6466 52.9192C29.5927 107.178 65.1138 169.332 92.9292 237.654C130.042 328.815 199.154 401.132 298.346 452.588C389.006 499.622 483.626 518.343 547.04 525.765C617.978 534.069 677.753 531.029 694.56 523.293L695.322 524.192C678.415 531.974 618.435 535.049 547.326 526.726C483.796 519.289 388.99 500.529 298.115 453.384C290.202 449.278 282.468 445.034 274.938 440.665Z" fill="white" fill-opacity="0.25098"/>
<path d="M280.681 435.164C195.884 385.975 135.263 321.028 100.207 241.723C35.1262 94.4976 -58.4661 1.31261 -125.521 -50.9353C-198.148 -107.525 -256.101 -129.588 -256.678 -129.805L-256.633 -130.683C-256.054 -130.466 -197.852 -108.309 -125.007 -51.5485C-82.2336 -18.2203 -42.8438 20.3457 -7.93191 63.0793C35.6999 116.486 72.4204 176.587 101.21 241.713C140.135 329.771 210.719 400.07 311.021 450.662C400.583 495.839 492.54 514.644 553.912 522.464C623.025 531.271 680.503 529.087 696.144 521.888L696.906 522.787C666.058 536.985 474.562 534.066 310.808 451.466C300.454 446.243 290.4 440.803 280.681 435.164Z" fill="white" fill-opacity="0.25098"/>
<path d="M286.041 429.478C203.844 381.796 144.232 320.163 108.503 245.816C41.2234 105.822 -55.3244 12.574 -124.471 -40.9999C-199.373 -99.0333 -259.108 -124.284 -259.703 -124.532L-259.601 -125.388C-259.005 -125.138 -199.055 -99.7976 -123.961 -41.6165C-79.8639 -7.45024 -39.2394 31.1928 -3.21723 73.2398C41.806 125.793 79.7259 183.841 109.489 245.772C150.421 330.945 222.861 399.385 324.777 449.194C413.076 492.343 502.085 511.114 561.207 519.262C630.775 528.85 683.469 527.048 697.73 520.484L698.492 521.383C684.129 527.994 631.223 529.833 561.468 520.219C502.245 512.056 413.072 493.25 324.584 450.008C311.236 443.484 298.376 436.634 286.041 429.478Z" fill="white" fill-opacity="0.25098"/>
<path d="M291.522 423.861C262.616 407.092 236.316 388.613 212.94 368.625C172.091 333.698 139.745 293.757 116.8 249.912C47.331 117.164 -52.1545 23.8621 -123.38 -31.0333C-200.564 -90.5197 -262.111 -118.978 -262.725 -119.259L-262.571 -120.092C-261.958 -119.812 -200.259 -91.288 -122.914 -31.6843C-77.4936 3.31923 -35.6355 42.0392 1.49677 83.4C47.9116 135.1 87.0303 191.094 117.767 249.827C160.972 332.389 235.731 399.166 339.986 448.315C426.775 489.229 512.458 507.81 569.054 516.194C636.142 526.131 686.239 525.098 699.314 519.079L700.076 519.978C686.895 526.045 636.583 527.115 569.304 517.149C512.612 508.752 426.779 490.136 339.813 449.139C323.016 441.221 306.899 432.781 291.522 423.861Z" fill="white" fill-opacity="0.25098"/>
<path d="M295.953 417.718C270.585 403.001 247.216 387.066 226.067 370.046C183.451 335.751 149.481 296.711 125.099 254.009C53.4206 128.471 -49.0399 35.0966 -122.371 -21.1293C-201.822 -82.0486 -265.115 -113.674 -265.746 -113.987L-265.543 -114.796C-264.912 -114.484 -201.461 -82.7775 -121.869 -21.7515C-75.1237 14.0896 -32.0317 52.8863 6.21054 93.5606C54.0153 144.406 94.3328 198.346 126.042 253.881C171.89 334.18 249.648 399.558 357.157 448.199C423.417 478.178 501.716 501.302 577.632 513.311C641.799 523.463 689.034 523.136 700.9 517.675L701.662 518.574C689.388 524.223 642.925 524.557 577.869 514.265C501.83 502.236 423.394 479.07 357.01 449.034C335.576 439.337 315.189 428.878 295.953 417.718Z" fill="white" fill-opacity="0.25098"/>
<path d="M299.705 411.245C278.541 398.967 258.765 385.914 240.499 372.154C195.541 338.288 159.508 299.917 133.402 258.109C59.5271 139.809 -45.8773 46.3771 -121.293 -11.1719C-203.022 -73.538 -268.116 -108.368 -268.764 -108.714L-268.518 -109.501C-267.869 -109.155 -202.667 -74.2694 -120.823 -11.8186C-72.7536 24.8601 -28.4283 63.7336 10.9233 103.722C60.1183 153.712 101.633 205.597 134.314 257.933C183.324 336.415 264.988 400.729 377.036 449.085C441.419 476.87 516.051 498.747 587.184 510.684C648.492 520.973 691.594 521.283 702.484 516.27L703.246 517.169C679.445 528.123 523.555 513.217 376.916 449.933C349.526 438.113 323.722 425.178 299.705 411.245Z" fill="white" fill-opacity="0.25098"/>
<path d="M302.624 404.372C286.543 395.042 271.259 385.308 256.821 375.193C208.688 341.473 169.958 303.46 141.706 262.211C65.6226 151.126 -42.7534 57.6209 -120.272 -1.2582C-204.273 -65.0617 -271.116 -103.066 -271.781 -103.442L-271.493 -104.206C-270.824 -103.827 -203.875 -65.764 -119.776 -1.88597C-70.3838 35.6303 -24.8241 74.5811 15.6364 113.883C66.2195 163.018 108.931 212.846 142.585 261.982C194.76 338.161 284.029 403.63 400.737 451.312C462.596 476.585 532.677 496.864 598.068 508.414C657.66 518.94 694.79 519.137 704.07 514.866L704.832 515.765C684.098 525.307 544.04 510.757 400.648 452.172C365.457 437.796 332.655 421.793 302.624 404.372Z" fill="white" fill-opacity="0.25098"/>
<path d="M304.601 396.984C247.5 363.857 191.137 320.871 150.014 266.315C71.7269 162.454 -39.6089 68.8843 -119.222 8.67665C-205.492 -56.5647 -274.113 -97.7601 -274.796 -98.1685L-274.471 -98.9112C-273.786 -98.5019 -205.079 -57.2546 -118.729 8.04683C-39.0245 68.3237 72.4458 162.01 150.852 266.028C223.024 361.776 342.446 421.831 429.919 455.35C566.404 507.652 688.434 521.386 705.655 513.46L706.416 514.359C696.397 518.971 658.049 516.252 610.993 507.592C552.582 496.843 488.255 478.6 429.863 456.225C391.964 441.702 348.065 422.199 304.601 396.984Z" fill="white" fill-opacity="0.25098"/>
<path d="M304.544 388.778C250.336 357.33 198.155 318.239 158.326 270.422C77.8351 173.789 -36.4545 80.1546 -118.159 18.6227C-206.702 -48.0612 -277.11 -92.4549 -277.811 -92.8951L-277.449 -93.6154C-276.748 -93.1751 -206.286 -48.7474 -117.683 17.98C-35.8979 79.5728 78.513 173.307 159.115 270.073C239.649 366.759 370.992 427.714 466.992 461.823C589.308 505.282 692.056 519.045 707.24 512.057L708.002 512.955C692.702 519.998 589.571 506.27 466.972 462.711C418.194 445.379 360.296 421.122 304.544 388.778Z" fill="white" fill-opacity="0.25098"/>
<path d="M303.033 379.701C247.007 347.199 201.168 311.858 166.642 274.531C83.9393 185.117 -33.3198 91.4109 -117.124 28.5474C-207.936 -39.5726 -280.105 -87.1487 -280.823 -87.6214L-280.43 -88.3213C-279.711 -87.848 -207.494 -40.2406 -116.637 27.9129C-32.7716 90.8228 84.5782 184.603 167.373 274.116C253.249 366.962 388.872 427.6 487.524 462.12C599.113 501.166 694.621 517.189 708.824 510.652L709.586 511.55C695.254 518.148 599.372 502.152 487.511 463.009C424.375 440.916 366.39 415.212 315.169 386.608C311.073 384.321 307.027 382.019 303.033 379.701Z" fill="white" fill-opacity="0.25098"/>
<path d="M298.419 369.193C248.853 340.438 207.414 310.052 174.963 278.642C12.4492 121.337 -280.89 -80.3285 -283.834 -82.3472L-283.412 -83.0277C-280.466 -81.0082 13.0016 120.746 175.626 278.156C268.763 368.308 415.628 429.42 494.883 457.826C605.487 497.466 697.853 515.026 710.41 509.247L711.172 510.146C698.177 516.127 607.451 499.063 494.86 458.712C432.942 436.521 375.633 411.311 324.525 383.782C315.59 378.969 306.884 374.104 298.419 369.193Z" fill="white" fill-opacity="0.25098"/>
<path d="M289.189 356.402C251.381 334.469 214.747 309.82 183.291 282.753C16.5426 139.274 -283.829 -74.9262 -286.844 -77.0725L-286.394 -77.7343C-283.378 -75.5861 17.0614 138.662 183.874 282.197C279.897 364.822 424.559 425.01 502.244 453.532C613.535 494.395 700.807 512.991 711.995 507.843L712.757 508.741C699.914 514.653 605.144 492.209 502.209 454.414C449.84 435.185 367.055 401.575 289.189 356.402Z" fill="white" fill-opacity="0.25098"/>
<path d="M273.815 340.885C244.826 324.068 216.845 305.99 191.622 286.865C20.6355 157.212 -286.768 -69.5224 -289.853 -71.7978L-289.378 -72.4407C-286.293 -70.1657 21.1204 156.576 192.117 286.237C291.294 361.439 433.602 420.642 509.604 449.238C612.971 488.132 702.548 511.515 713.58 506.439L714.342 507.337C703.128 512.499 616.267 490.267 509.556 450.116C452.782 428.753 359.021 390.317 273.815 340.885Z" fill="white" fill-opacity="0.25098"/>
<path d="M247.414 320.277C231.016 310.765 215.094 300.979 199.959 290.975C24.7296 175.152 -289.705 -64.1188 -292.86 -66.5215L-292.363 -67.148C-289.208 -64.7447 25.1772 174.488 200.355 290.277C303.247 358.288 442.881 416.371 516.963 444.945C623.956 486.212 705.827 509.332 715.165 505.034L715.927 505.932C705.259 510.842 614.118 483.313 516.903 445.817C453.651 421.42 342.63 375.516 247.414 320.277Z" fill="white" fill-opacity="0.25098"/>
<path d="M199.546 290.056C18.5838 185.073 -292.694 -58.7558 -295.869 -61.2463L-295.349 -61.8561C-292.124 -59.3249 29.2602 192.44 208.589 294.321C287.527 339.178 402.606 392.513 524.322 440.651C625.279 480.579 708.005 507.653 716.749 503.629L717.512 504.527C708.568 508.644 625.483 481.555 524.25 441.519C402.463 393.352 287.303 339.979 208.298 295.083C205.417 293.446 202.497 291.769 199.546 290.056Z" fill="white" fill-opacity="0.25098"/>
<path d="M150.684 263.876C64.8101 214.057 -34.9734 143.905 -110.829 88.1566C-215.253 11.4107 -298.049 -55.305 -298.873 -55.9703L-298.335 -56.564C-297.511 -55.8998 -214.742 10.7949 -110.35 87.5164C-14.0211 158.312 120.936 252.363 216.823 298.367C398.325 385.452 702.982 509.29 718.336 502.223L719.097 503.123C711.751 506.504 641.658 481.867 531.598 437.219C422.735 393.058 302.051 340.167 216.642 299.188C196.183 289.371 173.936 277.365 150.684 263.876L150.684 263.876Z" fill="white" fill-opacity="0.25098"/>
<path d="M115.388 248.27C38.3734 203.591 -44.4043 145.997 -109.78 98.0912C-216.471 19.9096 -301.037 -49.9964 -301.88 -50.6934L-301.322 -51.2723C-300.481 -50.5759 -215.95 19.3005 -109.302 97.4507C-10.8962 169.56 126.991 263.654 225.056 302.42C297.554 331.078 383.172 366.9 465.972 401.542C592.488 454.474 711.986 504.471 719.921 500.819L720.682 501.718C712.386 505.537 598.148 457.74 465.87 402.397C383.077 367.758 297.466 331.94 224.984 303.287C191.951 290.229 154.402 270.903 115.388 248.27Z" fill="white" fill-opacity="0.25098"/>
<path d="M89.2706 239.526C82.0223 235.322 74.6444 230.954 67.1349 226.423C14.439 194.626 -44.7309 154.792 -108.731 108.026C-217.69 28.4082 -304.025 -44.6876 -304.884 -45.4168L-304.311 -45.9814C-303.452 -45.2528 -217.16 27.806 -108.254 107.385C-7.77219 180.808 133.046 274.949 233.29 306.476C350.572 343.362 502.471 408.781 602.986 452.07C669.382 480.665 717.355 501.325 721.505 499.414L722.266 500.314C717.747 502.393 672.046 482.711 602.867 452.918C502.383 409.643 350.529 344.244 233.324 307.382C194.006 295.016 145.627 272.221 89.2706 239.526Z" fill="white" fill-opacity="0.25098"/>
<path d="M70.2162 235.645C16.821 204.669 -43.0195 165.084 -107.683 117.961C-218.909 36.907 -307.012 -39.3781 -307.889 -40.1385L-307.3 -40.6903C-306.423 -39.9298 -218.37 36.3114 -107.205 117.32C-4.64937 192.056 139.102 286.244 241.525 310.537C380.593 343.524 557.912 424.66 653.174 468.249C692.352 486.176 720.659 499.129 723.089 498.01L723.851 498.909C721.15 500.153 700.184 490.663 653.021 469.083C557.809 425.516 380.585 344.423 241.662 311.471C196.304 300.712 139.179 275.525 71.8755 236.607C71.3239 236.288 70.7695 235.966 70.2162 235.645Z" fill="white" fill-opacity="0.25098"/>
<path d="M55.4718 234.794C6.02062 206.106 -48.3902 170.229 -106.633 127.896C-220.126 45.4061 -309.997 -34.0682 -310.892 -34.8609L-310.288 -35.3998C-309.395 -34.6071 -219.579 44.8158 -106.157 127.254C-1.52296 203.306 145.161 297.542 249.766 314.604C405.23 339.963 599.264 435.881 682.119 476.84C705.125 488.212 723.296 497.195 724.675 496.605L725.437 497.504C723.766 498.273 711.638 492.342 681.919 477.651C599.127 436.723 405.245 340.88 249.997 315.556C203.657 307.998 145.323 284.862 76.6174 246.791C69.6773 242.945 62.6229 238.943 55.4718 234.794Z" fill="white" fill-opacity="0.25098"/>
<path d="M43.8595 236.117C-2.27168 209.355 -52.3653 176.415 -105.585 137.831C-221.344 53.9043 -312.983 -28.7585 -313.895 -29.5835L-313.278 -30.1096C-312.366 -29.2853 -220.789 53.3206 -105.108 137.188C1.60133 214.553 151.222 308.84 258.01 318.674C330.701 325.369 418.093 350.168 517.761 392.386C598.755 426.695 665.954 463.097 702.056 482.653C715.492 489.932 725.201 495.191 726.319 495.185L727.021 496.1C726.111 496.518 721.745 494.24 701.796 483.433C634.157 446.793 428.325 335.293 258.327 319.638C211.007 315.28 151.466 294.196 81.3585 256.973C69.1772 250.506 56.6707 243.55 43.8595 236.117Z" fill="white" fill-opacity="0.25098"/>
<path d="M34.5686 239.04C-8.76318 213.901 -55.3383 183.347 -104.536 147.766C-222.561 62.4042 -315.968 -23.448 -316.898 -24.3048L-316.268 -24.8199C-315.339 -23.9633 -222 61.8251 -104.06 147.123C4.72833 225.801 157.285 320.14 266.26 322.748C344.997 324.633 437.94 349.038 542.505 395.285C625.67 432.069 692.222 472.295 717.278 487.44C723.192 491.015 727.459 493.595 728.082 493.776C728.08 493.777 727.961 493.743 727.845 493.796L728.607 494.695C728.155 494.901 727.743 494.704 716.945 488.179C498.129 355.917 351.299 325.742 266.653 323.717C218.354 322.56 157.607 303.531 86.0997 267.157C69.4986 258.712 52.302 249.328 34.5686 239.04Z" fill="white" fill-opacity="0.25098"/>
<path d="M27.0339 243.166C-13.9127 219.411 -57.5844 190.821 -103.488 157.7C-223.779 70.9031 -318.952 -18.1371 -319.9 -19.026L-319.258 -19.5304C-318.311 -18.642 -223.21 70.3291 -103.013 157.057C7.85501 237.052 163.349 331.442 274.512 326.824C323.745 324.779 378.332 332.219 436.756 348.936C483.486 362.307 532.761 381.61 583.214 406.309C669.11 448.359 729.445 492.079 730.043 492.516L729.578 493.166C728.978 492.73 668.754 449.09 582.989 407.108C503.861 368.374 386.191 323.171 274.973 327.791C225.698 329.838 163.746 312.863 90.8393 277.338C70.417 267.388 49.1214 255.98 27.0339 243.166Z" fill="white" fill-opacity="0.25098"/>
<path d="M313.898 369.153C261.998 339.045 216.187 297.928 176.954 246.132C65.2724 98.6859 -44.944 26.0944 -117.739 -8.84098C-196.571 -46.6723 -249.656 -49.7 -250.183 -49.7265L-250.548 -50.6932C-250.018 -50.6666 -196.665 -47.6246 -117.557 -9.66066C-71.1102 12.628 -24.9921 42.4173 19.5177 78.8823C75.1382 124.448 128.389 180.621 177.79 245.842C243.704 332.867 328.259 389.631 429.105 414.56C521.275 437.347 605.571 428.316 660.055 416.727C721.007 403.765 768.432 381.997 779.07 368.442L780.042 369.178C769.341 382.813 721.762 404.682 660.665 417.677C606.079 429.286 521.617 438.331 429.228 415.491C388.022 405.303 349.525 389.822 313.898 369.153Z" fill="white" fill-opacity="0.541176"/>
<path d="M314.274 360.541C265.642 332.329 222.516 294.723 185.304 247.988C74.6701 109.037 -37.9749 37.2915 -112.99 1.56995C-194.241 -37.1185 -250.024 -43.0369 -250.578 -43.0924L-250.885 -44.055C-250.328 -43.9993 -194.307 -38.0554 -112.813 0.748541C-64.9615 23.5327 -17.8093 53.0234 27.3353 88.4023C83.7542 132.616 137.176 186.201 186.116 247.668C252.289 330.779 337.258 384.912 438.656 408.558C529.207 429.679 611.37 421.563 664.351 411.036C724.015 399.181 769.909 379.049 779.809 366.434L780.781 367.17C761.256 392.05 604.359 448.108 438.798 409.494C394.034 399.053 352.456 382.691 314.274 360.541Z" fill="white" fill-opacity="0.541176"/>
<path d="M314.078 351.772C268.926 325.579 228.679 291.539 193.655 249.846C84.0656 119.386 -31.0038 48.4842 -108.243 11.9807C-191.911 -27.5643 -250.39 -36.3755 -250.972 -36.4599L-251.224 -37.4161C-250.642 -37.3317 -191.95 -28.4881 -108.07 11.157C-58.8135 34.4376 -10.6277 63.6288 35.151 97.9233C92.3675 140.785 145.96 191.78 194.44 249.492C261.115 328.866 346.853 380.417 449.271 402.719C537.998 422.039 617.75 414.797 669.03 405.32C729.369 394.168 771.522 375.928 780.548 364.427L781.519 365.162C772.428 376.747 730.12 395.092 669.618 406.274C618.249 415.767 538.351 423.02 449.433 403.659C400.429 392.988 355.216 375.636 314.078 351.772Z" fill="white" fill-opacity="0.541176"/>
<path d="M313.268 342.743C271.763 318.665 234.393 288.093 202.009 251.706C93.4792 129.753 -24.0029 59.7042 -103.45 22.4125C-189.542 -17.9979 -250.755 -29.7141 -251.364 -29.828L-251.564 -30.7757C-250.955 -30.6614 -189.593 -18.9209 -103.326 21.5653C-52.6655 45.3417 -3.44424 74.2353 42.9676 107.444C100.981 148.954 154.744 197.359 202.762 251.315C270.263 327.164 357.247 376.201 461.295 397.067C547.92 414.438 624.892 408.021 674.209 399.579C732.67 389.573 773.009 372.964 781.286 362.419L782.258 363.154C773.915 373.785 733.414 390.499 674.787 400.535C625.387 408.991 548.278 415.417 461.479 398.012C413.193 388.328 367.857 372.258 326.731 350.247C322.198 347.821 317.707 345.319 313.268 342.743Z" fill="white" fill-opacity="0.541176"/>
<path d="M311.563 333.534C274.046 311.77 240.105 284.959 210.365 253.566C102.876 140.1 -17.0399 70.8957 -98.7086 32.8199C-187.214 -8.44281 -251.118 -23.0547 -251.754 -23.1969L-251.906 -24.1348C-251.27 -23.9914 -187.237 -9.35434 -98.5823 31.9743C-46.5165 56.2454 3.73801 84.84 50.7838 116.965C109.594 157.122 163.526 202.936 211.082 253.136C279.844 325.723 368.711 372.318 475.216 391.632C540.856 403.535 613.603 404.309 680.055 393.812C736.224 384.939 774.514 369.98 782.025 360.411L782.996 361.146C775.227 371.045 737.569 385.774 680.622 394.769C614.062 405.283 541.188 404.506 475.424 392.58C426.188 383.652 379.939 368.56 337.964 347.723C328.983 343.265 320.176 338.53 311.563 333.534Z" fill="white" fill-opacity="0.541176"/>
<path d="M308.833 324.037C275.685 304.807 245.502 281.838 218.725 255.43C112.275 150.451 -10.0747 82.0889 -93.967 43.2275C-184.885 1.11207 -251.48 -16.3943 -252.142 -16.5667L-252.249 -17.4929C-251.586 -17.3212 -184.883 0.212129 -93.839 42.3835C-40.3673 67.1499 10.9191 95.4481 58.5996 126.487C118.204 165.29 172.305 208.513 219.398 254.957C290.02 324.604 381.648 368.842 491.734 386.443C554.989 396.557 624.263 397.116 686.796 388.02C740.693 380.179 775.871 367.186 782.764 358.403L783.735 359.139C768.671 378.335 636.039 410.431 491.968 387.396C441.344 379.303 393.757 365.22 350.531 345.539C336.167 339 322.255 331.824 308.833 324.037Z" fill="white" fill-opacity="0.541176"/>
<path d="M304.894 314.222C276.541 297.773 250.518 278.742 227.086 257.294C121.674 160.799 -3.10804 93.2825 -89.2257 53.6349C-182.555 10.6673 -251.84 -9.73528 -252.529 -9.93637L-252.594 -10.8509C-251.904 -10.6497 -182.529 9.77848 -89.0945 52.7924C-34.2177 78.0553 18.1022 106.052 66.4149 136.009C126.814 173.458 181.082 214.089 227.712 256.774C300.006 322.952 398.269 366.088 511.883 381.52C572.1 389.7 637.047 389.941 694.758 382.201C747.352 375.148 777.628 363.88 783.502 356.395L784.474 357.131C771.351 373.853 651.734 401.438 512.148 382.478C459.545 375.333 410.037 362.312 364.996 343.775C343.976 335.124 323.908 325.252 304.894 314.222Z" fill="white" fill-opacity="0.541176"/>
<path d="M-252.915 -3.3065L-252.941 -4.20914C-252.224 -3.97871 -180.176 19.3435 -84.3507 63.2006C4.10097 103.683 131.481 170.443 236.022 258.591C332.248 339.727 452.913 367.689 537.194 376.861C668.703 391.17 773.34 368.276 784.24 354.387L785.212 355.123C778.87 363.205 746.614 372.124 704.946 377.318C653.224 383.765 593.754 383.944 537.49 377.822C470.838 370.57 381.461 351.576 299.293 303.91C277.302 291.153 255.839 276.349 235.452 259.159C131.071 171.145 3.84534 104.469 -84.5047 64.0341C-180.241 20.2167 -252.199 -3.07592 -252.915 -3.3065Z" fill="white" fill-opacity="0.541176"/>
<path d="M-253.3 3.32354L-253.289 2.43299C-252.545 2.69248 -177.824 28.9083 -79.6068 73.6101C11.0525 114.872 140.845 180.774 244.326 260.407C347.721 339.97 478.439 365.221 569.889 372.391C686.405 381.527 775.367 364.626 784.979 352.379L785.95 353.115C776.267 365.455 687.007 382.513 570.221 373.356C478.575 366.171 347.56 340.856 243.822 261.027C140.482 181.503 10.8291 115.674 -79.7416 74.4516C-177.893 29.7786 -252.557 3.58247 -253.3 3.32354Z" fill="white" fill-opacity="0.541176"/>
<path d="M-253.683 9.9531L-253.638 9.0751C-252.868 9.36381 -175.472 38.473 -74.8633 84.0182C18.0042 126.061 150.204 191.103 252.627 262.22C358.854 335.979 492.937 359.568 586.703 366.363C692.766 374.048 776.726 361.827 785.717 350.372L786.689 351.108C777.617 362.667 693.363 375.032 587.042 367.328C527.032 362.979 469.796 353.135 416.925 338.068C353.374 319.957 297.956 294.666 252.196 262.894C149.887 191.858 17.7892 126.865 -75.0106 84.8542C-175.569 39.3312 -252.914 10.2412 -253.683 9.9531Z" fill="white" fill-opacity="0.541176"/>
<path d="M-254.064 16.5825L-253.988 15.7175C-250.8 16.9888 66.9576 144.246 260.925 264.034C372.029 332.658 515.414 353.263 591.007 359.447C696.501 368.077 778.508 358.492 786.457 348.364L787.428 349.1C779.204 359.58 698.725 369.197 591.335 360.412C532.278 355.58 475.786 346.062 423.428 332.12C360.682 315.412 305.893 292.744 260.577 264.764C66.7453 145.04 -250.879 17.8542 -254.064 16.5825Z" fill="white" fill-opacity="0.541176"/>
<path d="M-254.446 23.2124L-254.34 22.3593C-251.045 23.7473 77.2863 162.341 269.217 265.849C379.7 325.433 520.947 345.734 595.31 352.532C701.842 362.271 780.113 355.379 787.195 346.356L788.166 347.092C780.038 357.45 694.162 362.504 595.627 353.496C521.158 346.687 379.695 326.349 268.961 266.63C77.1027 163.163 -251.152 24.6003 -254.446 23.2124Z" fill="white" fill-opacity="0.541176"/>
<path d="M-254.825 29.8427L-254.691 29.0014C-251.29 30.5053 87.6081 180.443 277.505 267.666C387.643 318.254 526.592 338.219 599.613 345.617C698.931 355.679 780.951 353.246 787.934 344.349L788.906 345.084C781.808 354.128 702.448 356.967 599.919 346.58C526.812 339.173 387.692 319.18 277.35 268.498C87.4634 181.279 -251.424 31.3472 -254.825 29.8427Z" fill="white" fill-opacity="0.541176"/>
<path d="M-255.204 36.4729L-255.045 35.6429C-251.537 37.2634 97.9287 198.542 285.788 269.485C396.122 311.149 532.464 330.736 603.916 338.702C707.11 350.207 782.761 349.872 788.672 342.341L789.644 343.077C782.891 351.68 697.973 350.117 604.21 339.663C532.696 331.69 396.225 312.083 285.739 270.36C97.8241 199.399 -251.696 38.0946 -255.204 36.4729Z" fill="white" fill-opacity="0.541176"/>
<path d="M-255.582 43.1041L-255.399 42.2844C-251.785 44.022 108.248 216.641 294.071 271.306C375.854 295.366 490.357 317.41 608.22 331.787C705.981 343.712 783.876 347.386 789.41 340.333L790.382 341.068C784.722 348.282 706.53 344.705 608.501 332.747C490.569 318.361 375.986 296.301 294.133 272.221C108.187 217.519 -251.966 44.8417 -255.582 43.1041Z" fill="white" fill-opacity="0.541176"/>
<path d="M-255.958 49.7343L-255.753 48.9255C-254.823 49.3895 -161.364 95.8588 -46.3886 146.477C59.7063 193.185 206.332 253.074 302.353 273.134C484.108 311.105 780.433 350.707 790.149 338.325L791.121 339.06C786.471 344.985 719.807 340.039 612.792 325.83C506.942 311.775 388.055 291.944 302.527 274.077C206.378 253.989 59.6402 194.057 -46.5263 147.317C-161.538 96.683 -255.028 50.198 -255.958 49.7343Z" fill="white" fill-opacity="0.541176"/>
<path d="M-256.335 56.3655L-256.11 55.5669C-255.152 56.0598 -159.014 105.423 -41.6426 156.887C66.6556 204.372 215.683 263.404 310.637 274.966C380.836 283.514 464.514 295.746 545.437 307.574C669.08 325.646 785.866 342.716 790.888 336.317L791.86 337.053C786.609 343.743 674.964 327.425 545.689 308.529C464.773 296.702 381.101 284.472 310.918 275.926C215.795 264.343 66.6159 205.256 -41.7802 157.727C-159.199 106.242 -255.377 56.8577 -256.335 56.3655Z" fill="white" fill-opacity="0.541176"/>
<path d="M-256.712 62.9955L-256.466 62.2083C-255.482 62.7302 -156.663 114.987 -36.8957 167.297C73.6059 215.559 225.036 273.734 318.925 276.803C428.77 280.393 577.954 304.108 676.672 319.801C741.883 330.167 788.999 337.657 791.626 334.309L792.599 335.045C789.738 338.691 744.852 331.555 676.908 320.754C578.219 305.067 429.081 281.359 319.307 277.771C277.745 276.412 221.592 264.27 152.408 241.684C97.0874 223.622 33.3496 198.878 -37.0332 168.136C-156.859 115.801 -255.726 63.518 -256.712 62.9955Z" fill="white" fill-opacity="0.541176"/>
<path d="M-257.087 69.6272L-256.823 68.8488C-255.812 69.3998 -154.314 124.55 -32.1499 177.706C80.5558 226.746 234.389 284.067 327.214 278.645C453.25 271.284 629.27 304.122 723.834 321.764C762.725 329.02 790.827 334.262 792.365 332.301L793.336 333.037C791.627 335.216 770.856 331.446 724.035 322.711C629.522 305.079 453.596 272.259 327.691 279.612C286.583 282.013 230.25 272.461 160.256 251.221C104.292 234.239 39.5114 209.788 -32.2871 178.547C-154.519 125.361 -256.075 70.1776 -257.087 69.6272Z" fill="white" fill-opacity="0.541176"/>
<path d="M-257.46 76.2586L-257.181 75.4896C-256.143 76.0697 -151.964 134.114 -27.4034 188.117C87.5063 237.935 243.744 294.399 335.51 280.49C471.895 259.819 667.304 303.461 750.748 322.097C773.915 327.27 792.215 331.358 793.104 330.294L794.076 331.03C793.018 332.377 780.831 329.719 750.902 323.034C667.524 304.413 472.267 260.805 336.071 281.449C295.419 287.61 238.906 280.649 168.104 260.759C111.498 244.856 45.6737 220.699 -27.5398 188.957C-152.178 134.92 -256.422 76.8393 -257.46 76.2586Z" fill="white" fill-opacity="0.541176"/>
<path d="M-257.834 82.8899L-257.538 82.13C-256.474 82.7397 -149.615 143.678 -22.6567 198.526C94.4574 249.122 253.102 304.733 343.812 282.339C405.558 267.095 486.356 266.869 583.966 281.667C663.289 293.692 732.21 312.245 769.238 322.213C783.02 325.922 792.978 328.603 793.885 328.25L794.814 329.022C794.238 329.756 789.793 328.643 769.334 323.136C699.96 304.462 488.848 247.632 344.447 283.282C304.252 293.206 247.561 288.836 175.952 270.296C118.703 255.473 51.8353 231.609 -22.7924 199.367C-149.836 144.48 -256.769 83.4997 -257.834 82.8899Z" fill="white" fill-opacity="0.541176"/>
<path d="M-257.69 89.8223C-257.996 89.645 -258.169 89.5432 -258.208 89.521L-257.897 88.7696C-256.792 89.4051 -147.266 153.24 -17.9109 208.936C101.408 260.311 262.461 315.069 352.118 284.191C416.896 261.879 502.054 259.51 605.226 277.148C687.286 291.177 757.183 314.063 783.494 322.678C789.703 324.711 794.189 326.18 794.765 326.184C794.764 326.184 794.654 326.185 794.581 326.279L795.553 327.014C795.268 327.377 794.856 327.293 783.513 323.578C553.707 248.332 422.455 261.129 352.816 285.115C313.08 298.8 256.214 297.023 183.798 279.833C125.907 266.09 57.997 242.519 -18.0459 209.777C-142.922 156.009 -249.344 94.6641 -257.69 89.8223Z" fill="white" fill-opacity="0.541176"/>
<path d="M-251.415 100.349C-255.941 97.7233 -258.419 96.2493 -258.581 96.153L-258.256 95.4097C-257.136 96.0788 -144.918 162.803 -13.1647 219.345C108.361 271.499 271.823 325.404 360.429 286.042C399.67 268.609 446.982 259.769 501.053 259.767C544.301 259.764 591.944 265.385 642.659 276.471C729.004 295.347 795.21 323.929 795.869 324.216L795.744 325.061C795.087 324.776 728.998 296.246 642.789 277.404C563.25 260.019 449.829 247.563 361.182 286.945C321.906 304.393 264.866 305.209 191.645 289.367C133.112 276.705 64.1588 253.43 -13.2985 220.187C-126.105 171.774 -224.609 115.901 -251.415 100.349Z" fill="white" fill-opacity="0.541176"/>
</svg>
