<svg width="433" height="109" viewBox="0 0 433 109" fill="none" xmlns="http://www.w3.org/2000/svg">
<path d="M69.3864 92.12C76.9804 92.12 83.1366 85.9638 83.1366 78.3698C83.1366 70.7758 76.9804 64.6196 69.3864 64.6196C61.7924 64.6196 55.6362 70.7758 55.6362 78.3698C55.6362 85.9638 61.7924 92.12 69.3864 92.12Z" fill="#FF0000"/>
<path fill-rule="evenodd" clip-rule="evenodd" d="M9.18572 108.978C4.13306 108.978 0 104.845 0 99.7921V9.18481C0 4.13261 4.13238 0.000228132 9.18458 0.000228132C12.8228 0.000228132 16.1166 2.16794 17.5887 5.48839C22.8702 14.039 30.2455 21.1985 39.0128 26.2625C47.9168 31.4042 58.2906 34.3505 69.386 34.3505C80.4808 34.3505 90.8537 31.4053 99.7593 26.2625C108.821 21.0287 116.395 13.5567 121.708 4.62195C123.403 1.76939 126.329 0 129.672 0C134.724 0 138.859 4.13192 138.859 9.18458V99.7919C138.859 104.844 134.725 108.978 129.673 108.978C124.62 108.978 120.488 104.845 120.488 99.7919V33.3152C116.785 36.5102 112.781 39.3614 108.526 41.8181C96.9838 48.4864 83.6123 52.3026 69.386 52.3026C55.1595 52.3026 41.7894 48.4848 30.2457 41.8181C26.0232 39.3806 22.0494 36.5535 18.371 33.3898V99.7921C18.371 104.844 14.2382 108.978 9.18572 108.978Z" fill="#06274D"/>
<path fill-rule="evenodd" clip-rule="evenodd" d="M393.632 0C415.376 0 433 17.6259 433 39.368C433 61.1112 415.376 78.7367 393.632 78.7367L328.528 78.7378V99.7937C328.528 104.846 324.396 108.978 319.344 108.978C314.291 108.978 310.158 104.847 310.158 99.7937V9.18641C310.158 4.1342 314.291 0.000228132 319.343 0.000228132H393.633L393.632 0ZM393.632 60.7839C405.46 60.7839 415.048 51.1955 415.048 39.368C415.048 27.5405 405.461 17.9528 393.632 17.9528H328.528V60.7848L393.632 60.7836V60.7839Z" fill="#06274D"/>
<path fill-rule="evenodd" clip-rule="evenodd" d="M193.235 91.0241H274.363C279.299 91.0241 283.337 95.063 283.337 100.001C283.337 104.938 279.3 108.978 274.363 108.978H184.051C178.998 108.978 174.864 104.847 174.864 99.7935V9.18618C174.864 4.13398 178.998 0 184.05 0H272.034C276.843 0 280.778 4.0393 280.778 8.97539C280.778 13.8152 276.94 17.9528 272.034 17.9528H193.236V44.3659H248.673C253.482 44.3659 257.418 48.4043 257.418 53.3402C257.418 58.1811 253.579 62.3187 248.673 62.3187H193.236V91.0246L193.235 91.0241Z" fill="#06274D"/>
</svg>
