<svg width="20" height="20" viewBox="0 0 20 20" fill="none" xmlns="http://www.w3.org/2000/svg">
<g clip-path="url(#clip0)">
<path d="M13.098 0H5.95364C2.66604 0 0 2.66604 0 5.95364V13.098C0 16.3856 2.66604 19.0517 5.95364 19.0517H13.098C16.3856 19.0517 19.0517 16.3856 19.0517 13.098V5.95364C19.0517 2.66604 16.3856 0 13.098 0ZM17.2656 13.098C17.2656 15.3961 15.3961 17.2656 13.098 17.2656H5.95364C3.65554 17.2656 1.78609 15.3961 1.78609 13.098V5.95364C1.78609 3.65554 3.65554 1.78609 5.95364 1.78609H13.098C15.3961 1.78609 17.2656 3.65554 17.2656 5.95364V13.098Z" fill="#A0A0A0"/>
<path d="M9.52659 4.76294C6.89627 4.76294 4.76367 6.89553 4.76367 9.52585C4.76367 12.1562 6.89627 14.2888 9.52659 14.2888C12.1569 14.2888 14.2895 12.1562 14.2895 9.52585C14.2895 6.89553 12.1569 4.76294 9.52659 4.76294ZM9.52659 12.5027C7.88576 12.5027 6.54976 11.1667 6.54976 9.52585C6.54976 7.88384 7.88576 6.54903 9.52659 6.54903C11.1674 6.54903 12.5034 7.88384 12.5034 9.52585C12.5034 11.1667 11.1674 12.5027 9.52659 12.5027Z" fill="#A0A0A0"/>
<path d="M14.6464 5.04031C14.9969 5.04031 15.281 4.75616 15.281 4.40565C15.281 4.05514 14.9969 3.771 14.6464 3.771C14.2959 3.771 14.0117 4.05514 14.0117 4.40565C14.0117 4.75616 14.2959 5.04031 14.6464 5.04031Z" fill="#A0A0A0"/>
</g>
<defs>
<clipPath id="clip0">
<rect width="19.0517" height="19.0517" fill="white"/>
</clipPath>
</defs>
</svg>
