<svg width="28" height="24" viewBox="0 0 28 24" fill="none" xmlns="http://www.w3.org/2000/svg">
<path fill-rule="evenodd" clip-rule="evenodd" d="M0.364312 8.89941C0.463987 8.79948 0.582396 8.7202 0.712757 8.66611C0.843119 8.61201 0.982872 8.58417 1.12401 8.58417C1.26515 8.58417 1.4049 8.61201 1.53526 8.66611C1.66563 8.7202 1.78404 8.79948 1.88371 8.89941L14.0003 21.0181L26.1168 8.89941C26.3183 8.69792 26.5916 8.58473 26.8765 8.58473C27.1614 8.58473 27.4347 8.69792 27.6362 8.89941C27.8377 9.10089 27.9509 9.37416 27.9509 9.65911C27.9509 9.94405 27.8377 10.2173 27.6362 10.4188L14.76 23.295C14.6603 23.395 14.5419 23.4743 14.4115 23.5284C14.2811 23.5824 14.1414 23.6103 14.0003 23.6103C13.8591 23.6103 13.7194 23.5824 13.589 23.5284C13.4586 23.4743 13.3402 23.395 13.2406 23.295L0.364312 10.4188C0.264386 10.3191 0.185105 10.2007 0.131011 10.0704C0.0769168 9.94 0.0490723 9.80024 0.0490723 9.65911C0.0490723 9.51797 0.0769168 9.37821 0.131011 9.24785C0.185105 9.11749 0.264386 8.99908 0.364312 8.89941Z" fill="white"/>
<path fill-rule="evenodd" clip-rule="evenodd" d="M0.364312 0.31524C0.463987 0.215313 0.582396 0.136033 0.712757 0.0819386C0.843119 0.0278446 0.982872 0 1.12401 0C1.26515 0 1.4049 0.0278446 1.53526 0.0819386C1.66563 0.136033 1.78404 0.215313 1.88371 0.31524L14.0003 12.4339L26.1168 0.31524C26.2166 0.215475 26.335 0.136337 26.4654 0.0823449C26.5957 0.0283525 26.7354 0.000562822 26.8765 0.000562822C27.0176 0.000562822 27.1573 0.0283525 27.2876 0.0823449C27.418 0.136337 27.5364 0.215475 27.6362 0.31524C27.736 0.415005 27.8151 0.533444 27.8691 0.663793C27.9231 0.794142 27.9509 0.93385 27.9509 1.07494C27.9509 1.21603 27.9231 1.35574 27.8691 1.48608C27.8151 1.61643 27.736 1.73487 27.6362 1.83464L14.76 14.7109C14.6603 14.8108 14.5419 14.8901 14.4115 14.9442C14.2811 14.9983 14.1414 15.0261 14.0003 15.0261C13.8591 15.0261 13.7194 14.9983 13.589 14.9442C13.4586 14.8901 13.3402 14.8108 13.2406 14.7109L0.364312 1.83464C0.264386 1.73496 0.185105 1.61655 0.131011 1.48619C0.0769168 1.35583 0.0490723 1.21608 0.0490723 1.07494C0.0490723 0.933799 0.0769168 0.794046 0.131011 0.663685C0.185105 0.533323 0.264386 0.414914 0.364312 0.31524Z" fill="white"/>
</svg>
