<svg width="361" height="151" viewBox="0 0 361 151" fill="none" xmlns="http://www.w3.org/2000/svg">
<path d="M0 37.4387V0H11.7374L20.4765 25.7136L29.0021 0H40.4794V37.4387H32.7403V10.8322L23.5278 37.4387H17.1591L7.84153 11.0947V37.4387H0ZM71.4861 37.4387H63.9047C63.6611 36.7393 63.4816 35.8624 63.3788 34.8082C61.0969 37.0903 58.1673 38.2271 54.5898 38.2271C51.5691 38.2271 49.2014 37.4997 47.4823 36.0447C45.7627 34.5902 44.9043 32.5845 44.9043 30.0257C44.9043 28.8671 45.0507 27.8518 45.3501 26.9749C45.6489 26.1006 46.1394 25.362 46.823 24.7677C47.5071 24.1701 48.1579 23.6807 48.7729 23.2958C49.3844 22.9088 50.2378 22.5932 51.3259 22.3499C52.4139 22.1012 53.2891 21.9183 53.9564 21.7942C54.6231 21.6726 55.5535 21.5396 56.7441 21.4013C59.3773 21.0503 61.1415 20.6819 62.0362 20.2978C62.9306 19.9102 63.3791 19.1917 63.3791 18.1431C63.3791 15.7227 61.7453 14.5139 58.4832 14.5139C56.7641 14.5139 55.5013 14.821 54.6925 15.4321C53.8867 16.0465 53.3609 17.1255 53.1146 18.6658H46.1143C46.5321 12.5669 50.7276 9.51814 58.694 9.51814C66.5881 9.51814 70.5391 12.4613 70.5391 18.3505V30.0782C70.5391 33.5139 70.8554 35.9677 71.4861 37.4387ZM63.323 24.2418C62.4484 24.7677 60.6957 25.2402 58.0621 25.6611C55.8526 26.0121 54.4126 26.449 53.745 26.9749C52.9723 27.6391 52.5878 28.5518 52.5878 29.7107C52.5878 30.8309 52.9477 31.7191 53.6679 32.3659C54.3845 33.0134 55.3955 33.3372 56.6944 33.3372C58.6937 33.3372 60.2994 32.8033 61.5094 31.7359C62.7227 30.6649 63.323 29.1824 63.323 27.2905V24.2424V24.2418ZM102.072 10.3063L91.8601 20.35L103.285 37.4387H94.2305L86.7542 25.3977L83.7029 28.2358V37.4387H76.3846V0H83.7029V20.035L93.2832 10.3063H102.072H102.072ZM112.868 0V6.30954H105.392V0H112.868ZM112.868 10.3063V37.4387H105.392V10.3063H112.868ZM143.612 37.4387H136.033V21.6113C136.033 19.6834 135.718 18.2201 135.087 17.2217C134.455 16.2206 133.226 15.7227 131.401 15.7227C127.469 15.7227 125.503 18.1074 125.503 22.8731V37.439H118.082V10.3066H125.187V14.0933C127.436 11.0785 130.435 9.57064 134.189 9.57064C137.102 9.57064 139.4 10.4116 141.086 12.0935C142.77 13.778 143.612 16.176 143.612 19.2964V37.4387H143.612ZM174.569 10.3063V34.6005C174.569 39.0512 173.464 42.3209 171.252 44.4063C169.039 46.4916 165.689 47.5349 161.198 47.5349C153.445 47.5349 149.197 44.7136 148.461 39.068H155.881C156.162 40.296 156.742 41.1814 157.618 41.7233C158.495 42.2684 159.741 42.5397 161.356 42.5397C163.707 42.5397 165.285 41.9699 166.096 40.8298C166.902 39.6904 167.32 37.9121 167.359 35.4943L167.409 32.4435C165.373 35.2483 162.602 36.6502 159.094 36.6502C155.547 36.6502 152.73 35.4391 150.645 33.021C148.558 30.6011 147.514 27.3622 147.514 23.2958C147.514 19.1581 148.602 15.8362 150.776 13.3299C152.952 10.8236 155.829 9.57064 159.409 9.57064C161.303 9.57064 162.873 9.91103 164.12 10.5971C165.365 11.2805 166.498 12.392 167.517 13.9358V10.3066H174.569L174.569 10.3063ZM165.778 17.4042C164.654 16.0374 163.109 15.3546 161.145 15.3546C159.18 15.3546 157.646 16.0459 156.541 17.4314C155.433 18.8148 154.882 20.7506 154.882 23.2404C154.882 25.6278 155.452 27.5276 156.594 28.947C157.732 30.3658 159.268 31.0737 161.198 31.0737C163.131 31.0737 164.654 30.3578 165.778 28.9216C166.902 27.4804 167.462 25.5358 167.462 23.0829C167.462 20.6651 166.902 18.7729 165.778 17.4042ZM28.1081 51.7311V58.4609H8.15721V66.6154H26.477V73.0825H8.15721V82.2853H28.476V89.1727H0.000346021V51.7314H28.1081V51.7311ZM49.4845 62.0373H56.9056L47.6957 89.1724H39.3251L30.0076 62.0373H37.9016L43.6948 80.548L49.4845 62.0373ZM84.7529 80.758C83.9137 83.6678 82.3603 85.9275 80.0977 87.5404C77.8329 89.1559 75.1383 89.9608 72.0152 89.9608C67.8398 89.9608 64.4811 88.6603 61.9364 86.0691C59.3915 83.4743 58.1177 80.0386 58.1177 75.7628C58.1177 71.5552 59.4 68.0864 61.9609 65.3506C64.5224 62.6184 67.7872 61.2489 71.7524 61.2489C75.8558 61.2489 79.1206 62.6429 81.543 65.4312C83.9633 68.2168 85.176 71.9953 85.176 76.7613V77.4966H65.699C65.7351 79.8454 66.3026 81.6349 67.4108 82.8602C68.5154 84.0887 70.0687 84.7022 72.0677 84.7022C74.701 84.7022 76.5425 83.3885 77.5973 80.758H84.7526H84.7529ZM77.5976 72.7672C77.4178 70.9768 76.8417 69.5137 75.8561 68.3743C74.8758 67.2375 73.5054 66.6677 71.7527 66.6677C70.1048 66.6677 68.7347 67.2068 67.646 68.2944C66.558 69.3813 65.9104 70.8717 65.6996 72.7672H77.5979H77.5976ZM106.34 61.5639V68.4519C105.288 68.2445 104.321 68.136 103.446 68.136C100.99 68.136 99.1813 68.9165 98.0241 70.4762C96.867 72.0366 96.2853 74.1331 96.2853 76.7613V89.1724H88.8117V62.0373H95.9198V67.0325C97.7085 63.2818 100.638 61.4064 104.708 61.4064C105.06 61.4064 105.603 61.4616 106.339 61.5639H106.34ZM133.138 62.0373L123.133 89.0674C122.644 90.4336 122.286 91.3881 122.056 91.93C121.829 92.4751 121.478 93.2384 121.004 94.2201C120.531 95.1993 120.09 95.8854 119.686 96.2704C119.285 96.6573 118.739 97.0942 118.055 97.5841C117.374 98.0767 116.602 98.4085 115.74 98.5852C114.882 98.7595 113.888 98.8477 112.766 98.8477C111.853 98.8477 110.188 98.8286 107.766 98.7926V92.6411H111.395C112.625 92.6411 113.564 92.3252 114.212 91.6952C114.863 91.0643 115.189 90.1708 115.189 89.0149C115.189 88.7323 115.118 88.384 114.976 87.9613L105.132 62.0376H113.187L119.398 80.4958L125.398 62.0376H133.138V62.0373ZM149.987 62.0373V67.0877H144.457V79.8646C144.457 80.6695 144.476 81.2586 144.512 81.6237C144.546 81.9948 144.67 82.3708 144.878 82.7578C145.089 83.1428 145.415 83.3967 145.853 83.5218C146.293 83.6401 146.914 83.7041 147.722 83.7041C148.636 83.7041 149.389 83.6681 149.987 83.5991V89.275C148.159 89.416 146.65 89.4877 145.459 89.4877C142.195 89.4877 139.977 88.9178 138.801 87.7784C137.626 86.6416 137.036 84.4371 137.036 81.1816V67.088H132.509V62.0376H137.036V53.8359H144.457V62.0376H149.987V62.0373ZM160.251 51.7311V65.6665C162.395 62.7927 165.252 61.3539 168.832 61.3539C175.187 61.3539 178.36 64.7011 178.36 71.3977V89.1724H170.887V73.1872C170.887 71.3284 170.552 69.909 169.888 68.9271C169.218 67.9451 167.955 67.4558 166.097 67.4558C163.849 67.4558 162.314 68.1717 161.489 69.6105C160.667 71.049 160.252 72.9577 160.252 75.3416V89.1721H152.883V51.7308H160.252L160.251 51.7311ZM191.001 51.7311V58.0433H183.524V51.7311H191.001ZM191.001 62.0373V89.1724H183.524V62.0373H191.001ZM221.745 89.1724H214.163V73.345C214.163 71.4145 213.848 69.9538 213.216 68.9527C212.585 67.9543 211.358 67.4564 209.533 67.4564C205.601 67.4564 203.636 69.8376 203.636 74.6063V89.1727H196.214V62.0376H203.32V65.8244C205.568 62.8096 208.567 61.3044 212.321 61.3044C215.234 61.3044 217.533 62.1453 219.219 63.8272C220.899 65.509 221.744 67.9097 221.744 71.0302V89.1724H221.745ZM252.699 62.0373V86.3343C252.699 90.7849 251.594 94.0546 249.385 96.1373C247.172 98.2254 243.822 99.266 239.33 99.266C231.577 99.266 227.327 96.4447 226.593 90.8018H234.014C234.294 92.0297 234.876 92.9152 235.751 93.457C236.629 94.0021 237.874 94.2699 239.489 94.2699C241.839 94.2699 243.418 93.7027 244.226 92.5606C245.032 91.4238 245.453 89.6455 245.489 87.225L245.542 84.1769C243.507 86.9817 240.735 88.3837 237.226 88.3837C233.679 88.3837 230.863 87.1725 228.778 84.7518C226.687 82.3346 225.647 79.0923 225.647 75.0266C225.647 70.8915 226.735 67.5688 228.908 65.0634C231.082 62.5571 233.962 61.3041 237.542 61.3041C239.436 61.3041 241.006 61.6445 242.252 62.3279C243.497 63.014 244.63 64.1254 245.646 65.6665V62.0373H252.699ZM243.908 69.138C242.786 67.7711 241.241 67.0877 239.278 67.0877C237.312 67.0877 235.775 67.7797 234.671 69.1651C233.566 70.5485 233.015 72.4843 233.015 74.9741C233.015 77.358 233.583 79.2587 234.726 80.6775C235.864 82.0968 237.4 82.8074 239.33 82.8074C241.261 82.8074 242.786 82.088 243.908 80.6527C245.032 79.2142 245.594 77.2695 245.594 74.8166C245.594 72.3961 245.032 70.5039 243.908 69.138ZM0.0534602 103.465H16.2131C20.4251 103.465 23.767 104.471 26.2393 106.488C28.7122 108.505 29.95 111.508 29.95 115.505C29.95 119.433 28.7228 122.403 26.2671 124.42C23.8081 126.437 20.599 127.44 16.6306 127.44H8.21327V140.903H0.0528835V103.464L0.0534602 103.465ZM8.2139 110.195V120.977H15.5262C19.81 120.977 21.9502 119.19 21.9502 115.613C21.9502 112.004 19.8266 110.195 15.5815 110.195H8.2139ZM46.9596 112.983C51.1357 112.983 54.4944 114.297 57.0384 116.927C59.5834 119.555 60.8572 123.027 60.8572 127.338C60.8572 131.684 59.5834 135.175 57.0384 137.8C54.4944 140.43 51.0996 141.747 46.8519 141.747C42.6073 141.747 39.2014 140.43 36.6399 137.8C34.0817 135.175 32.7993 131.684 32.7993 127.338C32.7993 123.027 34.0977 119.555 36.6925 116.927C39.29 114.297 42.7125 112.983 46.9596 112.983ZM46.7494 118.662C44.7475 118.662 43.1689 119.433 42.0091 120.977C40.852 122.517 40.273 124.639 40.273 127.338C40.273 130.107 40.852 132.262 42.0091 133.805C43.1689 135.349 44.7835 136.121 46.8519 136.121C48.9255 136.121 50.5286 135.34 51.6701 133.781C52.8108 132.22 53.3812 130.054 53.3812 127.283C53.3812 124.586 52.7915 122.476 51.6175 120.949C50.4403 119.424 48.8178 118.661 46.7494 118.661V118.662ZM87.9681 121.657H81.0183C80.8107 120.294 80.2928 119.326 79.4678 118.767C78.6426 118.205 77.4408 117.923 75.8596 117.923C74.5279 117.923 73.4924 118.161 72.7557 118.637C72.019 119.11 71.6511 119.765 71.6511 120.609C71.6511 121.588 72.0716 122.272 72.9137 122.659C73.7555 123.043 75.2676 123.464 77.4411 123.92C77.8258 123.989 78.1087 124.045 78.2829 124.078C79.5455 124.321 80.5535 124.542 81.3094 124.736C82.0647 124.927 82.9845 125.242 84.0726 125.682C85.1607 126.119 86.0025 126.611 86.6007 127.154C87.1957 127.698 87.7221 128.426 88.1786 129.336C88.6357 130.246 88.8654 131.3 88.8654 132.492C88.8654 135.333 87.7582 137.573 85.546 139.222C83.3359 140.871 80.3014 141.692 76.4413 141.692C72.7557 141.692 69.7212 140.904 67.3339 139.327C64.9475 137.75 63.737 135.333 63.7036 132.071H70.809C71.0553 135.084 72.9825 136.594 76.5987 136.594C78.1081 136.594 79.3066 136.287 80.2037 135.673C81.098 135.059 81.5465 134.246 81.5465 133.228C81.5465 132.213 81.1426 131.491 80.3368 131.07C79.5284 130.653 78.036 130.196 75.8593 129.704C75.6848 129.668 75.5439 129.635 75.4415 129.599C75.1952 129.53 74.6522 129.408 73.8078 129.23C72.9659 129.056 72.379 128.923 72.0441 128.835C71.7114 128.749 71.169 128.6 70.4131 128.389C69.6598 128.179 69.1059 127.977 68.7545 127.784C68.4052 127.59 67.9399 127.347 67.3591 127.048C66.7827 126.752 66.3507 126.426 66.0714 126.077C65.7885 125.723 65.4817 125.314 65.1489 124.841C64.8167 124.368 64.59 123.831 64.4654 123.236C64.3438 122.641 64.2823 121.992 64.2823 121.292C64.2823 118.626 65.3152 116.576 67.3862 115.14C69.4573 113.699 72.3875 112.983 76.1779 112.983C79.5806 112.983 82.3715 113.683 84.5459 115.085C86.722 116.488 87.8627 118.678 87.9678 121.657L87.9681 121.657ZM115.503 121.657H108.553C108.345 120.294 107.827 119.326 107 118.767C106.177 118.205 104.972 117.923 103.395 117.923C102.063 117.923 101.027 118.161 100.287 118.637C99.5539 119.11 99.1828 119.765 99.1828 120.609C99.1828 121.588 99.6068 122.272 100.446 122.659C101.29 123.043 102.799 123.464 104.973 123.92C105.361 123.989 105.643 124.045 105.818 124.078C107.08 124.321 108.088 124.542 108.844 124.736C109.6 124.927 110.519 125.242 111.607 125.682C112.696 126.119 113.537 126.611 114.135 127.154C114.731 127.698 115.257 128.426 115.714 129.336C116.171 130.246 116.398 131.3 116.398 132.492C116.398 135.333 115.293 137.573 113.08 139.222C110.871 140.871 107.836 141.692 103.976 141.692C100.287 141.692 97.2553 140.904 94.8689 139.327C92.4816 137.75 91.2719 135.333 91.2385 132.071H98.3439C98.5902 135.084 100.517 136.594 104.134 136.594C105.642 136.594 106.842 136.287 107.739 135.673C108.633 135.059 109.081 134.246 109.081 133.228C109.081 132.213 108.678 131.491 107.872 131.07C107.063 130.653 105.57 130.196 103.394 129.704C103.22 129.668 103.079 129.635 102.976 129.599C102.73 129.53 102.187 129.408 101.343 129.23C100.501 129.056 99.9139 128.923 99.5785 128.835C99.2463 128.749 98.7006 128.6 97.9447 128.389C97.1947 128.179 96.6411 127.977 96.2888 127.784C95.9401 127.59 95.4751 127.347 94.8934 127.048C94.315 126.752 93.8859 126.426 93.6063 126.077C93.3234 125.723 93.0161 125.314 92.6839 124.841C92.3517 124.368 92.1217 123.831 91.9997 123.236C91.8781 122.641 91.8146 121.992 91.8146 121.292C91.8146 118.626 92.8501 116.576 94.9211 115.14C96.9895 113.699 99.9216 112.983 103.71 112.983C107.116 112.983 109.907 113.683 112.08 115.085C114.257 116.488 115.398 118.678 115.503 121.657L115.503 121.657ZM127.772 103.465V109.774H120.296V103.465H127.772ZM127.772 113.771V140.904H120.296V113.771H127.772ZM140.305 103.465V117.085C142.409 114.454 145.269 113.14 148.885 113.14C152.499 113.14 155.34 114.454 157.411 117.085C159.479 119.712 160.518 123.043 160.518 127.076C160.518 131.422 159.402 134.937 157.176 137.618C154.944 140.298 152.042 141.639 148.462 141.639C144.707 141.639 141.866 140.256 139.936 137.485L139.989 140.903H132.884V103.465H140.305V103.465ZM146.568 118.874C144.566 118.874 142.979 119.616 141.803 121.107C140.629 122.595 140.038 124.619 140.038 127.181C140.038 129.809 140.62 131.878 141.777 133.385C142.935 134.892 144.532 135.648 146.568 135.648C148.498 135.648 150.051 134.876 151.228 133.333C152.402 131.789 152.989 129.723 152.989 127.126C152.989 124.639 152.402 122.642 151.228 121.134C150.051 119.624 148.498 118.874 146.568 118.874L146.568 118.874ZM172.051 103.465V140.904H164.574V103.465H172.051ZM202.739 132.492C201.9 135.399 200.346 137.662 198.085 139.274C195.819 140.887 193.125 141.692 190.002 141.692C185.829 141.692 182.468 140.395 179.923 137.8C177.382 135.209 176.104 131.773 176.104 127.496C176.104 123.289 177.389 119.82 179.948 117.085C182.509 114.353 185.774 112.983 189.739 112.983C193.845 112.983 197.11 114.377 199.53 117.165C201.95 119.948 203.162 123.73 203.162 128.496V129.231H183.686C183.722 131.58 184.292 133.367 185.397 134.594C186.502 135.822 188.055 136.437 190.057 136.437C192.687 136.437 194.529 135.12 195.584 132.492H202.739V132.492ZM195.584 124.498C195.407 122.711 194.828 121.248 193.846 120.106C192.862 118.969 191.494 118.399 189.739 118.399C188.091 118.399 186.721 118.941 185.633 120.028C184.544 121.115 183.897 122.603 183.686 124.498H195.584H195.584ZM247.333 113.771V138.066C247.333 142.519 246.229 145.789 244.019 147.871C241.806 149.957 238.453 151 233.965 151C226.209 151 221.962 148.179 221.228 142.536H228.649C228.928 143.764 229.507 144.646 230.385 145.191C231.263 145.733 232.508 146.004 234.123 146.004C236.474 146.004 238.052 145.434 238.861 144.295C239.666 143.158 240.087 141.376 240.123 138.959L240.173 135.908C238.138 138.712 235.369 140.115 231.858 140.115C228.314 140.115 225.498 138.907 223.41 136.486C221.323 134.068 220.278 130.827 220.278 126.761C220.278 122.623 221.366 119.3 223.54 116.794C225.717 114.288 228.596 113.035 232.174 113.035C234.068 113.035 235.64 113.376 236.883 114.062C238.13 114.745 239.265 115.857 240.281 117.401V113.771H247.334H247.333ZM238.542 120.869C237.421 119.505 235.876 118.819 233.91 118.819C231.946 118.819 230.409 119.513 229.304 120.896C228.2 122.279 227.646 124.218 227.646 126.708C227.646 129.092 228.216 130.993 229.357 132.411C230.498 133.831 232.035 134.541 233.965 134.541C235.895 134.541 237.421 133.822 238.542 132.387C239.666 130.948 240.229 129.001 240.229 126.55C240.229 124.13 239.666 122.238 238.542 120.868V120.869ZM270.341 113.298V120.186C269.289 119.979 268.322 119.87 267.447 119.87C264.991 119.87 263.183 120.65 262.025 122.21C260.868 123.771 260.287 125.865 260.287 128.495V140.904H252.813V113.771H259.921V118.767C261.71 115.016 264.639 113.14 268.71 113.14C269.061 113.14 269.604 113.193 270.341 113.298H270.341ZM284.875 112.983C289.048 112.983 292.409 114.297 294.954 116.927C297.496 119.555 298.773 123.027 298.773 127.338C298.773 131.684 297.496 135.175 294.954 137.8C292.409 140.43 289.014 141.747 284.767 141.747C280.522 141.747 277.116 140.43 274.555 137.8C271.996 135.175 270.711 131.684 270.711 127.338C270.711 123.027 272.013 119.555 274.608 116.927C277.204 114.297 280.627 112.983 284.875 112.983H284.875ZM284.662 118.662C282.663 118.662 281.085 119.433 279.924 120.977C278.767 122.517 278.189 124.639 278.189 127.338C278.189 130.107 278.767 132.262 279.924 133.805C281.085 135.349 282.698 136.121 284.767 136.121C286.839 136.121 288.445 135.34 289.585 133.781C290.726 132.22 291.297 130.054 291.297 127.283C291.297 124.586 290.707 122.476 289.533 120.949C288.356 119.424 286.733 118.661 284.662 118.661V118.662ZM328.412 113.771V140.904H321.304V137.067C319.2 140.149 316.25 141.692 312.46 141.692C309.478 141.692 307.151 140.878 305.485 139.25C303.821 137.618 302.984 135.208 302.984 132.019V113.771H310.513V129.283C310.513 130.301 310.558 131.117 310.644 131.728C310.732 132.343 310.918 132.965 311.197 133.596C311.479 134.227 311.945 134.691 312.593 134.987C313.241 135.286 314.074 135.435 315.093 135.435C319.022 135.435 320.988 132.876 320.988 127.759V113.771H328.412ZM340.471 113.771V117.135C342.434 114.401 345.242 113.035 348.894 113.035C352.54 113.035 355.473 114.352 357.683 116.977C359.892 119.607 361 123.115 361 127.496C361 131.737 359.92 135.144 357.76 137.723C355.6 140.298 352.751 141.59 349.21 141.59C345.557 141.59 342.766 140.237 340.836 137.54V150.527H333.415V113.772H340.471L340.471 113.771ZM347.05 119.033C345.014 119.033 343.428 119.765 342.284 121.24C341.144 122.711 340.573 124.76 340.573 127.391C340.573 130.019 341.152 132.071 342.312 133.543C343.469 135.018 345.067 135.75 347.102 135.75C349.101 135.75 350.671 135.018 351.812 133.543C352.952 132.071 353.523 130.055 353.523 127.496C353.523 124.866 352.942 122.8 351.787 121.292C350.63 119.782 349.051 119.033 347.05 119.033H347.05Z" fill="white"/>
</svg>
