<svg width="11" height="20" viewBox="0 0 11 20" fill="none" xmlns="http://www.w3.org/2000/svg">
<path d="M10.3381 0.00404122L7.86755 0C5.09198 0 3.29828 1.87614 3.29828 4.77996V6.98384H0.814251C0.599602 6.98384 0.425781 7.16125 0.425781 7.38008V10.5733C0.425781 10.7921 0.5998 10.9693 0.814251 10.9693H3.29828V19.0267C3.29828 19.2455 3.4721 19.4227 3.68675 19.4227H6.92769C7.14234 19.4227 7.31616 19.2453 7.31616 19.0267V10.9693H10.2206C10.4352 10.9693 10.609 10.7921 10.609 10.5733L10.6102 7.38008C10.6102 7.27501 10.5692 7.17438 10.4965 7.10002C10.4237 7.02567 10.3246 6.98384 10.2216 6.98384H7.31616V5.11558C7.31616 4.21762 7.52605 3.76177 8.67343 3.76177L10.3377 3.76117C10.5522 3.76117 10.726 3.58376 10.726 3.36513V0.400081C10.726 0.181653 10.5524 0.00444535 10.3381 0.00404122Z" fill="#A0A0A0"/>
</svg>
